<?xml version="1.0" encoding="UTF-8"?>
<!-- Generator: https://ezgif.com/webp-to-svg -->
<svg version="1.1" xmlns="http://www.w3.org/2000/svg" width="1000" height="1000">
<path d="M0 0 C1.04 0 1.04 0 2.1 0 C24.43 0.01 46.37 0.7 68.44 4.38 C69.42 4.53 69.42 4.53 70.42 4.7 C110 11.15 147.85 23.1 184.44 39.38 C185.23 39.72 186.02 40.07 186.84 40.43 C199.87 46.16 212.16 53.2 224.44 60.38 C225.25 60.85 226.06 61.32 226.9 61.81 C253.16 77.23 276.99 95.87 299.44 116.38 C300.41 117.25 301.37 118.13 302.37 119.03 C310.88 126.74 319.21 134.6 326.68 143.34 C328.63 145.6 330.66 147.8 332.69 150 C337.79 155.66 342.45 161.62 347.1 167.65 C348.32 169.22 349.56 170.77 350.8 172.32 C366.89 192.6 381.21 215.04 392.44 238.38 C393.05 239.58 393.67 240.79 394.29 241.99 C420.76 293.42 436.4 350.7 440.44 408.38 C440.49 409.13 440.55 409.89 440.61 410.67 C447.4 504.72 422.12 599.2 371.44 678.38 C370.73 679.48 370.02 680.59 369.29 681.73 C357.23 700.16 343.82 717.66 328.82 733.79 C326.92 735.85 325.1 737.93 323.27 740.05 C318.9 745.07 314.21 749.75 309.5 754.44 C308.64 755.3 307.79 756.16 306.91 757.04 C301.91 762.03 296.8 766.79 291.44 771.38 C290.39 772.3 289.34 773.23 288.3 774.16 C224.34 830.37 142.63 865.25 58.69 877.06 C57.07 877.29 55.45 877.52 53.83 877.76 C36.47 880.26 19.35 880.94 1.81 880.88 C0.47 880.87 -0.87 880.87 -2.22 880.87 C-23.92 880.83 -45.09 879.53 -66.48 875.74 C-68.56 875.38 -70.64 875.03 -72.72 874.68 C-91.67 871.49 -110.17 866.94 -128.56 861.38 C-130.11 860.91 -130.11 860.91 -131.69 860.43 C-200.76 839.21 -262.18 799.95 -313.08 749.04 C-314.75 747.37 -316.43 745.71 -318.12 744.05 C-324.73 737.46 -330.76 730.69 -336.56 723.38 C-337.5 722.27 -338.44 721.18 -339.39 720.09 C-395.64 655.59 -427.96 570.68 -437.56 486.38 C-437.68 485.34 -437.8 484.3 -437.92 483.24 C-441.13 453.71 -440.94 422.87 -437.56 393.38 C-437.43 392.24 -437.3 391.11 -437.17 389.94 C-426.63 300.66 -389.41 213.52 -328.12 147.18 C-326.18 145.05 -324.3 142.91 -322.43 140.73 C-318.23 135.91 -313.76 131.38 -309.24 126.87 C-307.82 125.45 -306.42 124.02 -305.01 122.6 C-299.58 117.15 -294 112.1 -287.98 107.32 C-285.71 105.5 -283.57 103.6 -281.44 101.62 C-274.51 95.42 -267.03 89.9 -259.56 84.38 C-258.43 83.54 -258.43 83.54 -257.27 82.68 C-201.43 41.73 -135.5 15.42 -67.25 4.62 C-66 4.43 -64.75 4.23 -63.46 4.02 C-59.5 3.42 -55.54 2.88 -51.56 2.38 C-50.82 2.28 -50.08 2.19 -49.32 2.09 C-32.92 0.08 -16.51 -0.03 0 0 Z " fill="#0B4639" transform="translate(499.5625,71.625)"/>
<path d="M0 0 C1.19 -0.02 2.38 -0.04 3.61 -0.06 C20.43 -0.05 34.23 5.93 46.31 17.44 C51.17 23.16 54.69 29.42 57.31 36.44 C57.82 37.75 57.82 37.75 58.35 39.09 C59.43 42.85 59.6 46.3 59.58 50.18 C59.58 50.91 59.58 51.63 59.58 52.38 C59.59 53.91 59.58 55.45 59.57 56.98 C59.56 59.3 59.57 61.62 59.59 63.94 C59.58 65.44 59.58 66.93 59.58 68.43 C59.58 69.11 59.59 69.8 59.59 70.5 C59.45 84.78 52.97 97.24 43.31 107.44 C31.02 118.31 19.74 121.61 3.69 121.69 C2.58 121.71 1.46 121.73 0.32 121.75 C-15.17 121.82 -27.63 117.45 -39 106.75 C-51.24 93.74 -55.4 78.93 -55.12 61.38 C-55.13 60.1 -55.14 58.83 -55.15 57.52 C-55.04 40.95 -50.55 27.28 -38.69 15.44 C-33.56 10.41 -28.22 6.46 -21.69 3.44 C-19.99 2.64 -19.99 2.64 -18.26 1.82 C-12.34 -0.34 -6.22 -0.04 0 0 Z " fill="#FBFCFC" transform="translate(251.6875,445.5625)"/>
<path d="M0 0 C0.72 0.29 1.44 0.58 2.19 0.88 C15.07 6.51 24.24 17.76 29.5 30.56 C30.03 32.03 30.54 33.51 31 35 C31.17 35.55 31.35 36.09 31.53 36.65 C32.2 39.98 32.2 43.28 32.24 46.66 C32.25 47.41 32.25 48.15 32.26 48.92 C32.28 50.5 32.29 52.07 32.3 53.65 C32.31 55.25 32.33 56.84 32.36 58.44 C32.54 68.05 32.29 76.16 28 85 C27.62 85.8 27.24 86.61 26.85 87.44 C22.28 96.78 14.63 104.34 6 110 C4.36 111.08 4.36 111.08 2.69 112.19 C-6.31 117.05 -15.99 117.5 -26 117.44 C-27.19 117.46 -28.39 117.48 -29.62 117.5 C-44.01 117.49 -55.87 112.15 -66.25 102.25 C-81.79 85.96 -82.79 66.97 -82.29 45.62 C-81.87 33.61 -77.53 24.27 -70 15 C-69.07 13.77 -69.07 13.77 -68.12 12.51 C-52.26 -6.24 -21.82 -10.07 0 0 Z " fill="#FBFCFC" transform="translate(398,450)"/>
<path d="M0 0 C0.98 0 1.95 0 2.96 0 C17.66 0.18 27.44 4.89 38.18 14.96 C47.47 24.89 50 36.43 49.88 49.69 C49.87 50.79 49.86 51.89 49.85 53.03 C49.52 68.34 44.94 79.38 33.75 90.19 C21.03 100.66 6.15 101.52 -9.56 100.38 C-19.18 98.5 -28.18 92.78 -34.56 85.38 C-34.56 84.72 -34.56 84.06 -34.56 83.38 C-35.22 83.38 -35.88 83.38 -36.56 83.38 C-36.56 99.54 -36.56 115.72 -36.56 132.38 C-39.53 132.38 -42.5 132.38 -45.56 132.38 C-45.56 91.12 -45.56 49.88 -45.56 7.38 C-42.59 7.38 -39.62 7.38 -36.56 7.38 C-36.23 10.35 -35.9 13.31 -35.56 16.38 C-35.05 15.84 -34.55 15.31 -34.02 14.77 C-24 4.48 -14.45 -0.36 0 0 Z " fill="#0C4639" transform="translate(495.5625,455.625)"/>
<path d="M0 0 C0 0.66 0 1.32 0 2 C0.78 2.04 1.57 2.08 2.38 2.12 C10.98 4.2 18.67 10.01 24 17 C30.48 28.08 32.23 36.82 32.38 49.56 C32.43 51.38 32.43 51.38 32.49 53.24 C32.59 64.17 29.7 73.26 23 82 C22.44 82.81 22.44 82.81 21.88 83.63 C15.85 91.64 5.84 97.46 -4 99 C-7.26 99.28 -10.48 99.33 -13.75 99.31 C-14.63 99.31 -15.51 99.3 -16.42 99.3 C-28.78 99.07 -39.2 96.29 -48.45 87.74 C-58.99 76.66 -62.37 65.3 -62.37 50.2 C-62.37 48.2 -62.41 46.2 -62.45 44.2 C-62.49 31.07 -58.77 21.81 -50 12 C-36.35 -0.45 -18.16 -5.23 0 0 Z " fill="#0D4739" transform="translate(612,457)"/>
<path d="M0 0 C8.58 0 17.16 0 26 0 C26 16.83 26 33.66 26 51 C26.66 51 27.32 51 28 51 C28.24 50.44 28.48 49.88 28.72 49.3 C30.29 46.48 32.21 44.52 34.48 42.22 C34.93 41.75 35.38 41.29 35.85 40.82 C37.34 39.31 38.84 37.8 40.34 36.29 C41.38 35.24 42.42 34.19 43.46 33.14 C45.64 30.94 47.82 28.75 50.01 26.56 C52.82 23.75 55.61 20.93 58.39 18.09 C60.53 15.92 62.69 13.76 64.85 11.6 C65.88 10.56 66.91 9.52 67.93 8.48 C69.37 7.02 70.81 5.58 72.26 4.14 C73.08 3.31 73.9 2.49 74.75 1.64 C77 0 77 0 79.18 0.14 C81.56 1.27 83.05 2.71 84.89 4.6 C85.6 5.32 86.31 6.03 87.04 6.78 C87.77 7.53 88.5 8.28 89.25 9.06 C90 9.82 90.74 10.58 91.51 11.36 C93.35 13.23 95.18 15.11 97 17 C95.69 19.91 94.3 21.93 92 24.14 C91.4 24.73 90.8 25.32 90.17 25.92 C89.52 26.55 88.88 27.17 88.21 27.81 C86.84 29.15 85.48 30.48 84.11 31.82 C81.96 33.92 79.8 36.01 77.63 38.1 C75.54 40.12 73.47 42.15 71.39 44.19 C70.74 44.81 70.08 45.43 69.41 46.08 C68.52 46.96 68.52 46.96 67.61 47.86 C67.08 48.37 66.55 48.88 66.01 49.41 C64.79 50.97 64.79 50.97 65.22 52.98 C66.54 56.41 68.38 59.56 70.19 62.75 C70.62 63.53 71.06 64.3 71.51 65.1 C76.47 73.91 81.59 82.63 86.7 91.36 C90.52 97.88 94.27 104.43 98 111 C93.73 114.64 89.14 117.43 84.31 120.25 C83.54 120.71 82.77 121.17 81.97 121.64 C81.24 122.07 80.5 122.51 79.74 122.95 C79.07 123.35 78.4 123.74 77.71 124.15 C76 125 76 125 74 125 C73.64 124.36 73.29 123.72 72.92 123.05 C59.6 98.64 59.6 98.64 45 75 C45 74.01 45 73.02 45 72 C43.14 73.57 41.32 75.15 39.52 76.78 C37.86 78.24 36.15 79.65 34.4 81.01 C29.55 85.1 26.54 88.34 25.9 94.86 C25.74 98.46 25.78 102.03 25.88 105.62 C25.88 107.12 25.87 108.62 25.87 110.11 C25.85 113.75 25.93 117.36 26 121 C17.42 121 8.84 121 0 121 C0 81.07 0 41.14 0 0 Z " fill="#FCFDFD" transform="translate(99,445)"/>
<path d="M0 0 C9.17 6.43 16.13 14.22 19.84 24.99 C20.12 27.25 20.32 29.52 20.46 31.8 C20.57 33.54 20.57 33.54 20.69 35.32 C20.74 36.2 20.79 37.08 20.84 37.99 C-8.75 43.98 -8.75 43.98 -19.16 45.86 C-20.4 46.09 -21.64 46.31 -22.91 46.54 C-26.05 46.97 -29.01 47.07 -32.16 46.99 C-32.16 47.65 -32.16 48.31 -32.16 48.99 C-34.57 50.19 -36.11 50.09 -38.79 50.05 C-40.01 50.04 -40.01 50.04 -41.27 50.02 C-41.89 50.01 -42.52 50 -43.16 49.99 C-42.67 52.96 -42.67 52.96 -42.16 55.99 C-43.48 55.99 -44.8 55.99 -46.16 55.99 C-46.16 54.67 -46.16 53.35 -46.16 51.99 C-51.44 51.99 -56.72 51.99 -62.16 51.99 C-62.16 53.31 -62.16 54.63 -62.16 55.99 C-60.84 55.99 -59.52 55.99 -58.16 55.99 C-58.16 58.63 -58.16 61.27 -58.16 63.99 C-56.84 63.99 -55.52 63.99 -54.16 63.99 C-54.16 65.97 -54.16 67.95 -54.16 69.99 C-52.84 69.99 -51.52 69.99 -50.16 69.99 C-50.16 71.31 -50.16 72.63 -50.16 73.99 C-48.84 73.99 -47.52 73.99 -46.16 73.99 C-46.16 74.65 -46.16 75.31 -46.16 75.99 C-44.84 76.32 -43.52 76.65 -42.16 76.99 C-42.66 78.97 -42.66 78.97 -43.16 80.99 C-39.22 81.11 -35.27 81.2 -31.32 81.26 C-29.33 81.3 -27.34 81.36 -25.35 81.43 C-14.05 81.57 -6.34 78.75 1.84 70.99 C2.83 69.5 2.83 69.5 3.84 67.99 C6.81 69.11 9.17 70.21 11.84 71.99 C7.58 81.35 -1.88 87.07 -11.18 90.63 C-17.06 92.51 -22.86 92.5 -28.98 92.49 C-30.62 92.53 -30.62 92.53 -32.31 92.57 C-42.74 92.6 -51.87 89.4 -60.16 82.99 C-60.8 82.51 -61.43 82.03 -62.09 81.54 C-67.56 77.13 -71.01 72.24 -74.16 65.99 C-74.51 65.39 -74.85 64.8 -75.21 64.19 C-78.97 57.03 -78.76 50 -78.66 42.05 C-78.68 40.74 -78.7 39.44 -78.71 38.09 C-78.66 24.21 -74.42 15.44 -64.84 5.6 C-46.91 -11.42 -20.71 -13.17 0 0 Z " fill="#0D4739" transform="translate(850.1640625,464.01171875)"/>
<path d="M0 0 C8.95 5.96 14.51 12.77 16.99 23.32 C18.17 34.45 17.84 44.79 11 54 C5.67 60.36 0.85 63.7 -7.01 66.32 C-18.05 67.19 -25.65 66.07 -34.26 59.07 C-40.46 53.3 -43.69 47.74 -44.12 39.19 C-44.18 36.78 -44.2 34.37 -44.2 31.95 C-44.21 31.14 -44.22 30.32 -44.24 29.49 C-44.26 19.07 -41.65 12.05 -34.31 4.59 C-25 -3.9 -11.44 -6.14 0 0 Z " fill="#0D4739" transform="translate(268.01171875,474.67578125)"/>
<path d="M0 0 C6.32 4.53 11.56 10.27 13.66 17.91 C15.07 29.06 15.64 41.84 9.49 51.63 C3.27 59.38 -3.72 64.1 -13.73 65.32 C-22.86 65.7 -29.22 63.97 -36.36 58.3 C-41.48 53.58 -46 46.9 -46.48 39.76 C-46.51 37.08 -46.52 34.4 -46.52 31.72 C-46.54 30.8 -46.55 29.88 -46.56 28.93 C-46.58 18.41 -44.39 11.18 -37.15 3.28 C-26.78 -6.56 -12.23 -6.99 0 0 Z " fill="#0C4639" transform="translate(389.3359375,476.09375)"/>
<path d="M0 0 C0.98 0 1.95 0 2.96 0 C17.66 0.18 27.44 4.89 38.18 14.96 C47.47 24.89 50 36.43 49.88 49.69 C49.87 50.79 49.86 51.89 49.85 53.03 C49.52 68.34 44.94 79.38 33.75 90.19 C21.03 100.66 6.15 101.52 -9.56 100.38 C-19.18 98.5 -28.18 92.78 -34.56 85.38 C-34.56 84.72 -34.56 84.06 -34.56 83.38 C-35.22 83.38 -35.88 83.38 -36.56 83.38 C-36.56 99.54 -36.56 115.72 -36.56 132.38 C-39.53 132.38 -42.5 132.38 -45.56 132.38 C-45.56 91.12 -45.56 49.88 -45.56 7.38 C-42.59 7.38 -39.62 7.38 -36.56 7.38 C-36.23 10.35 -35.9 13.31 -35.56 16.38 C-35.05 15.84 -34.55 15.31 -34.02 14.77 C-24 4.48 -14.45 -0.36 0 0 Z M-21.56 15.38 C-22.24 15.83 -22.92 16.29 -23.62 16.76 C-30.15 21.67 -34.6 29.53 -36.56 37.38 C-38.17 53.51 -37.86 66.72 -27.67 79.81 C-22.53 85.51 -14.48 90.88 -6.64 91.54 C6.84 91.8 17.98 91.95 28.44 82.38 C35.26 75.79 40.46 66.81 40.68 57.22 C40.71 55.1 40.73 52.99 40.75 50.88 C40.78 49.84 40.81 48.8 40.84 47.73 C40.93 36.22 37.88 27.89 29.88 19.61 C19.3 9.94 10.06 8.66 -3.85 8.93 C-10.92 9.3 -15.81 11.14 -21.56 15.38 Z " fill="#F5F7F7" transform="translate(495.5625,455.625)"/>
<path d="M0 0 C1.68 5.17 3.11 10.25 4 15.62 C4.54 18.85 5.18 21.73 6.44 24.75 C7.92 28.39 8.65 32.01 9.38 35.88 C11.28 45.9 14.15 55.62 16.99 65.41 C17.26 66.37 17.53 67.33 17.81 68.31 C18.05 69.11 18.28 69.91 18.52 70.74 C19.05 73.21 19.08 75.48 19 78 C19.66 78 20.32 78 21 78 C21.11 77.04 21.11 77.04 21.22 76.07 C22.33 71.69 24.36 67.93 26.41 63.92 C27.08 62.59 27.08 62.59 27.76 61.24 C29.19 58.41 30.63 55.58 32.06 52.75 C33.93 49.06 35.8 45.37 37.66 41.67 C38.34 40.32 38.34 40.32 39.04 38.94 C42.32 32.43 45.47 25.86 48.45 19.2 C51.31 12.94 51.31 12.94 54 11 C56.5 11.06 56.5 11.06 59 12 C61.67 15.03 63.14 18.31 64.71 22 C65.23 23.21 65.75 24.41 66.28 25.65 C66.83 26.95 67.38 28.26 67.94 29.56 C69.09 32.27 70.25 34.98 71.41 37.68 C71.71 38.37 72 39.06 72.31 39.77 C74.33 44.48 76.41 49.17 78.52 53.85 C78.94 54.78 78.94 54.78 79.37 55.72 C80.7 58.68 82.04 61.62 83.39 64.57 C83.87 65.62 84.34 66.67 84.83 67.76 C85.25 68.68 85.67 69.6 86.1 70.54 C87 73 87 73 87 77 C87.66 77 88.32 77 89 77 C89.12 76.39 89.23 75.78 89.35 75.15 C90.51 69.2 91.87 63.33 93.39 57.46 C93.62 56.58 93.84 55.71 94.07 54.8 C94.8 51.99 95.52 49.18 96.25 46.38 C97.24 42.52 98.23 38.67 99.22 34.82 C99.46 33.88 99.71 32.94 99.95 31.97 C102.69 21.33 105.36 10.67 108 0 C110.97 0.33 113.94 0.66 117 1 C117 3.31 117 5.62 117 8 C116.34 8 115.68 8 115 8 C114.9 8.91 114.79 9.81 114.69 10.75 C114.05 15.25 112.88 19.59 111.75 23.98 C111.12 26.51 110.59 29.01 110.12 31.56 C109.05 37.13 107.57 42.57 106.1 48.05 C104.03 55.83 102.07 63.64 100.14 71.46 C99.67 73.36 99.2 75.26 98.72 77.16 C98.22 79.12 97.74 81.09 97.26 83.06 C97.01 84.04 96.76 85.02 96.51 86.03 C96.29 86.91 96.07 87.8 95.85 88.71 C94.93 91.19 94.08 92.37 92 94 C89.56 94.5 89.56 94.5 87 94 C82.46 89.5 80.4 83.53 77.94 77.75 C76.97 75.5 75.99 73.26 75.02 71.01 C74.52 69.85 74.03 68.7 73.51 67.51 C71.08 61.87 68.6 56.25 66.12 50.62 C65.47 49.12 65.47 49.12 64.79 47.59 C61.91 41.04 58.98 34.51 56 28 C53.82 31.54 51.88 35.13 50.03 38.86 C49.46 40.01 48.88 41.17 48.29 42.36 C47.84 43.27 47.84 43.27 47.37 44.21 C46.42 46.13 45.47 48.05 44.51 49.97 C41.79 55.43 39.08 60.88 36.38 66.34 C34.72 69.69 33.05 73.03 31.39 76.38 C30.75 77.65 30.12 78.93 29.49 80.2 C28.61 81.98 27.73 83.75 26.84 85.53 C26.34 86.54 25.84 87.55 25.32 88.59 C24 91 24 91 22 93 C18.38 93.12 18.38 93.12 15 93 C9.25 74 9.25 74 7.12 66.56 C6.9 65.78 6.68 65 6.45 64.19 C5.95 61.75 5.92 59.49 6 57 C5.34 57 4.68 57 4 57 C2.64 52.48 1.63 48.1 0.88 43.44 C-0.84 33.51 -3.63 23.82 -6.31 14.12 C-6.65 12.86 -7 11.59 -7.36 10.29 C-7.67 9.15 -7.99 8.01 -8.31 6.84 C-9 4 -9 4 -9 1 C-5.8 -0.07 -3.34 -0.07 0 0 Z " fill="#F4F7F7" transform="translate(654,460)"/>
<path d="M0 0 C9.17 6.43 16.13 14.22 19.84 24.99 C20.12 27.25 20.32 29.52 20.46 31.8 C20.57 33.54 20.57 33.54 20.69 35.32 C20.74 36.2 20.79 37.08 20.84 37.99 C5.85 41.03 -9.14 44.03 -24.16 46.86 C-25.28 47.08 -26.4 47.29 -27.56 47.51 C-29.13 47.81 -29.13 47.81 -30.73 48.11 C-31.64 48.28 -32.54 48.45 -33.48 48.62 C-36.4 49.02 -39.22 49.05 -42.16 48.99 C-42.66 45.03 -42.66 45.03 -43.16 40.99 C-35.8 38.84 -28.48 37.22 -20.91 35.99 C-12.94 34.65 -5.03 33.2 2.88 31.5 C5.6 31.03 8.07 30.89 10.84 30.99 C7.02 19.74 1.45 11.85 -8.85 5.61 C-18.87 0.7 -34.72 1.58 -45.41 3.99 C-54.3 7.05 -60.42 13.34 -64.91 21.4 C-65.32 22.25 -65.74 23.11 -66.16 23.99 C-66.7 25.04 -67.24 26.09 -67.8 27.18 C-69.69 31.67 -69.6 36.06 -69.54 40.86 C-69.55 41.71 -69.56 42.56 -69.57 43.43 C-69.52 54.17 -65.6 64.09 -58.28 72.04 C-49.62 79.99 -41.55 82.18 -30.04 82.24 C-29.03 82.26 -28.02 82.28 -26.98 82.3 C-17.69 82.35 -10.72 80.67 -3.23 74.99 C-2.31 74.31 -1.39 73.63 -0.45 72.93 C2.02 71.02 2.02 71.02 3.84 67.99 C6.81 69.11 9.17 70.21 11.84 71.99 C7.58 81.35 -1.88 87.07 -11.18 90.63 C-17.06 92.51 -22.86 92.5 -28.98 92.49 C-30.62 92.53 -30.62 92.53 -32.31 92.57 C-42.74 92.6 -51.87 89.4 -60.16 82.99 C-60.8 82.51 -61.43 82.03 -62.09 81.54 C-67.56 77.13 -71.01 72.24 -74.16 65.99 C-74.51 65.39 -74.85 64.8 -75.21 64.19 C-78.97 57.03 -78.76 50 -78.66 42.05 C-78.68 40.74 -78.7 39.44 -78.71 38.09 C-78.66 24.21 -74.42 15.44 -64.84 5.6 C-46.91 -11.42 -20.71 -13.17 0 0 Z " fill="#F5F8F8" transform="translate(850.1640625,464.01171875)"/>
<path d="M0 0 C0 0.66 0 1.32 0 2 C0.78 2.04 1.57 2.08 2.38 2.12 C10.98 4.2 18.67 10.01 24 17 C30.48 28.08 32.23 36.82 32.38 49.56 C32.43 51.38 32.43 51.38 32.49 53.24 C32.59 64.17 29.7 73.26 23 82 C22.44 82.81 22.44 82.81 21.88 83.63 C15.85 91.64 5.84 97.46 -4 99 C-7.26 99.28 -10.48 99.33 -13.75 99.31 C-14.63 99.31 -15.51 99.3 -16.42 99.3 C-28.78 99.07 -39.2 96.29 -48.45 87.74 C-58.99 76.66 -62.37 65.3 -62.37 50.2 C-62.37 48.2 -62.41 46.2 -62.45 44.2 C-62.49 31.07 -58.77 21.81 -50 12 C-36.35 -0.45 -18.16 -5.23 0 0 Z M-45.25 20.25 C-52.29 29.46 -53.76 37.16 -53.5 48.69 C-53.5 49.97 -53.51 51.25 -53.51 52.56 C-53.44 59.12 -53.23 64.24 -50 70 C-49.65 70.71 -49.29 71.42 -48.93 72.15 C-43.56 81.25 -36.14 87.07 -26 90 C-22.29 90.52 -18.68 90.56 -14.94 90.5 C-14.01 90.52 -13.08 90.53 -12.12 90.55 C-2.61 90.49 5.93 86.99 12.78 80.25 C21.78 70.49 23.2 61.77 23.31 48.81 C23.34 47.73 23.37 46.64 23.4 45.52 C23.48 35.08 21 27.37 13.79 19.75 C5.44 11.6 -3.13 7.6 -14.81 7.69 C-16.02 7.7 -16.02 7.7 -17.24 7.7 C-28.44 7.93 -37.55 11.9 -45.25 20.25 Z " fill="#F3F6F6" transform="translate(612,457)"/>
<path d="M0 0 C0 2.97 0 5.94 0 9 C-0.65 9.09 -1.3 9.17 -1.98 9.26 C-8.15 10.25 -11.66 11.45 -16 16 C-18.41 19.6 -18.31 23.24 -18.32 27.43 C-18.33 28.17 -18.34 28.91 -18.35 29.68 C-18.38 32.12 -18.4 34.57 -18.41 37.02 C-18.43 38.71 -18.45 40.41 -18.47 42.11 C-18.52 46.58 -18.56 51.04 -18.6 55.51 C-18.64 60.06 -18.69 64.62 -18.74 69.18 C-18.84 78.12 -18.92 87.06 -19 96 C-21.97 96 -24.94 96 -28 96 C-28.12 85.99 -28.2 75.97 -28.26 65.96 C-28.29 61.31 -28.32 56.65 -28.38 52 C-28.43 47.51 -28.46 43.02 -28.47 38.52 C-28.48 36.81 -28.5 35.11 -28.53 33.4 C-28.68 23.23 -28.66 14.93 -21.26 7.18 C-14.87 1.11 -8.6 -0.4 0 0 Z " fill="#FDFEFE" transform="translate(909,456)"/>
<path d="M0 0 C0.33 0 0.66 0 1 0 C1 262.02 1 524.04 1 794 C0.67 794 0.34 794 0 794 C0 531.98 0 269.96 0 0 Z " fill="#0B4639" transform="translate(999,119)"/>
<path d="M0 0 C0.33 0 0.66 0 1 0 C1 262.02 1 524.04 1 794 C0.67 794 0.34 794 0 794 C0 531.98 0 269.96 0 0 Z " fill="#0B4639" transform="translate(0,119)"/>
<path d="M0 0 C0 2.97 0 5.94 0 9 C-0.65 9.09 -1.3 9.17 -1.98 9.26 C-8.15 10.25 -11.66 11.45 -16 16 C-16.31 16.74 -16.62 17.49 -16.94 18.25 C-17.29 18.83 -17.64 19.4 -18 20 C-21.56 20.69 -21.56 20.69 -25 21 C-26.9 22.9 -26.17 26.29 -26.21 28.81 C-26.22 29.53 -26.23 30.24 -26.24 30.97 C-26.27 33.34 -26.29 35.7 -26.32 38.07 C-26.34 39.7 -26.36 41.34 -26.38 42.97 C-26.43 47.28 -26.48 51.6 -26.53 55.91 C-26.58 60.31 -26.64 64.7 -26.69 69.1 C-26.8 77.73 -26.9 86.37 -27 95 C-24.69 95 -22.38 95 -20 95 C-20 71.24 -20 47.48 -20 23 C-19.67 23 -19.34 23 -19 23 C-19 47.09 -19 71.18 -19 96 C-21.97 96 -24.94 96 -28 96 C-28.12 85.99 -28.2 75.97 -28.26 65.96 C-28.29 61.31 -28.32 56.65 -28.38 52 C-28.43 47.51 -28.46 43.02 -28.47 38.52 C-28.48 36.81 -28.5 35.11 -28.53 33.4 C-28.68 23.23 -28.66 14.93 -21.26 7.18 C-14.87 1.11 -8.6 -0.4 0 0 Z " fill="#D1DDDB" transform="translate(909,456)"/>
<path d="M0 0 C2.97 0 5.94 0 9 0 C9.33 2.97 9.66 5.94 10 9 C10.66 8.67 11.32 8.34 12 8 C11.67 9.32 11.34 10.64 11 12 C10.01 11.67 9.02 11.34 8 11 C8 8.03 8 5.06 8 2 C6.02 2 4.04 2 2 2 C2 2.62 2 3.23 2 3.87 C2.02 18.86 2.04 33.85 2.05 48.83 C2.06 56.08 2.06 63.33 2.08 70.58 C2.09 76.9 2.09 83.21 2.09 89.53 C2.1 92.87 2.1 96.22 2.11 99.57 C2.11 103.3 2.11 107.03 2.11 110.76 C2.12 111.87 2.12 112.99 2.12 114.14 C2.12 115.15 2.12 116.16 2.12 117.2 C2.12 118.09 2.12 118.97 2.12 119.88 C2 122 2 122 1 124 C3.64 124 6.28 124 9 124 C9 124.33 9 124.66 9 125 C6.03 125 3.06 125 0 125 C0 83.75 0 42.5 0 0 Z " fill="#C5D3D0" transform="translate(450,463)"/>
<path d="M0 0 C4.57 2.02 7.62 4.32 11 8 C9.35 8.33 7.7 8.66 6 9 C6.35 9.95 6.7 10.9 7.06 11.88 C8 15 8 15 7 17 C6.5 16.54 6.01 16.08 5.5 15.61 C-2.29 8.58 -8.46 4.85 -19.18 4.9 C-20.91 4.91 -20.91 4.91 -22.68 4.91 C-23.88 4.92 -25.08 4.93 -26.31 4.94 C-28.14 4.94 -28.14 4.94 -30 4.95 C-33 4.96 -36 4.98 -39 5 C-35.4 2.6 -33.72 2.74 -29.43 2.73 C-28.14 2.73 -26.85 2.73 -25.53 2.73 C-24.85 2.73 -24.18 2.73 -23.49 2.74 C-21.44 2.75 -19.39 2.74 -17.34 2.73 C-16.05 2.73 -14.76 2.73 -13.43 2.73 C-12.25 2.74 -11.06 2.74 -9.84 2.74 C-7 3 -7 3 -5 5 C-5 4.34 -5 3.68 -5 3 C-4.36 2.88 -3.72 2.75 -3.06 2.62 C-2.38 2.42 -1.7 2.21 -1 2 C-0.67 1.34 -0.34 0.68 0 0 Z " fill="#F4F7F7" transform="translate(846,462)"/>
<path d="M0 0 C0.99 0.99 1.98 1.98 3 3 C3.66 2.67 4.32 2.34 5 2 C8.41 3.49 9.86 4.78 11.88 7.94 C13 10.99 13.24 12.07 12 15 C10.35 14.67 8.7 14.34 7 14 C6.67 14.66 6.34 15.32 6 16 C0.44 5.63 0.44 5.63 0 0 Z M3 5 C4 7 4 7 4 7 Z " fill="#F8FAFB" transform="translate(850,467)"/>
<path d="M0 0 C0.33 0 0.66 0 1 0 C1.03 0.96 1.05 1.92 1.08 2.91 C1.17 6.46 1.27 10.01 1.37 13.56 C1.42 15.1 1.46 16.64 1.5 18.18 C1.56 20.39 1.62 22.6 1.68 24.8 C1.7 25.49 1.72 26.18 1.73 26.89 C1.81 30.57 1.81 30.57 3 34 C0.18 35.41 -2.17 35.11 -5.32 35.1 C-6.58 35.09 -7.83 35.09 -9.13 35.09 C-10.45 35.08 -11.77 35.07 -13.12 35.06 C-14.46 35.06 -15.8 35.05 -17.14 35.05 C-20.43 35.04 -23.71 35.02 -27 35 C-27 34.34 -27 33.68 -27 33 C-18.09 33 -9.18 33 0 33 C0 22.11 0 11.22 0 0 Z " fill="#2B544A" transform="translate(125,534)"/>
<path d="M0 0 C0.33 0 0.66 0 1 0 C2 7.62 2 7.62 2 11 C1.01 11.33 0.02 11.66 -1 12 C-1 11.34 -1 10.68 -1 10 C-2.65 10 -4.3 10 -6 10 C-5.34 11.32 -4.68 12.64 -4 14 C-4.33 14.33 -4.66 14.66 -5 15 C-6.09 14.96 -7.19 14.92 -8.31 14.88 C-12.16 15.01 -13.3 15.41 -16 18 C-16 16.68 -16 15.36 -16 14 C-10.21 8.59 -7.58 7.88 0 8 C0 5.36 0 2.72 0 0 Z " fill="#255348" transform="translate(909,457)"/>
<path d="M0 0 C1.13 0.02 2.27 0.04 3.44 0.06 C3.44 2.7 3.44 5.34 3.44 8.06 C-0.52 8.72 -4.48 9.38 -8.56 10.06 C-8.56 9.07 -8.56 8.08 -8.56 7.06 C-7.23 6.06 -5.9 5.06 -4.56 4.06 C-4.56 3.07 -4.56 2.08 -4.56 1.06 C-3.56 0.06 -3.56 0.06 0 0 Z " fill="#FAFCFD" transform="translate(905.5625,456.9375)"/>
<path d="M0 0 C1.32 0 2.64 0 4 0 C4 0.66 4 1.32 4 2 C4.66 2 5.32 2 6 2 C6 1.34 6 0.68 6 0 C7.32 0 8.64 0 10 0 C10 0.66 10 1.32 10 2 C11.32 2.33 12.64 2.66 14 3 C13.67 4.32 13.34 5.64 13 7 C21.25 7.33 29.5 7.66 38 8 C38 8.33 38 8.66 38 9 C34.35 9.12 30.71 9.19 27.06 9.25 C26.04 9.28 25.02 9.32 23.97 9.35 C14.43 9.47 7.58 6.64 0 1 C0 0.67 0 0.34 0 0 Z " fill="#275449" transform="translate(794,538)"/>
<path d="M0 0 C0.33 0 0.66 0 1 0 C1.06 3.87 1.09 7.75 1.12 11.62 C1.15 13.27 1.15 13.27 1.18 14.94 C1.24 24.98 1.24 24.98 -1 30 C-1.66 29.01 -2.32 28.02 -3 27 C-5.06 26.28 -5.06 26.28 -7 26 C-6.67 24.68 -6.34 23.36 -6 22 C-4.68 21.67 -3.36 21.34 -2 21 C-2 15.72 -2 10.44 -2 5 C-1.67 5 -1.34 5 -1 5 C-0.67 3.35 -0.34 1.7 0 0 Z " fill="#2F6154" transform="translate(535,494)"/>
<path d="M0 0 C0.33 0 0.66 0 1 0 C1 0.71 1.01 1.42 1.01 2.15 C1.15 15.87 1.33 28.32 7 41 C5.51 41.5 5.51 41.5 4 42 C3.71 41.26 3.42 40.51 3.12 39.75 C2.18 37.43 1.15 35.22 0 33 C-1.5 30 -1 27.36 -0.88 24.02 C-0.86 23.34 -0.83 22.65 -0.81 21.95 C-0.73 19.76 -0.65 17.57 -0.56 15.38 C-0.51 13.89 -0.46 12.41 -0.4 10.92 C-0.28 7.28 -0.14 3.64 0 0 Z " fill="#2C5B50" transform="translate(549,494)"/>
<path d="M0 0 C1.58 0.03 1.58 0.03 3.2 0.05 C5.78 0.1 8.36 0.17 10.94 0.25 C10.94 0.58 10.94 0.91 10.94 1.25 C3.02 1.75 3.02 1.75 -5.06 2.25 C-5.39 3.24 -5.72 4.23 -6.06 5.25 C-8.37 4.92 -10.68 4.59 -13.06 4.25 C-13.39 4.91 -13.72 5.57 -14.06 6.25 C-17.12 6.88 -17.12 6.88 -20.06 7.25 C-20.39 6.26 -20.72 5.27 -21.06 4.25 C-13.98 0.28 -8.03 -0.26 0 0 Z " fill="#2B5A4D" transform="translate(498.0625,464.75)"/>
<path d="M0 0 C-3 2 -3 2 -6 2 C-6.33 3.32 -6.66 4.64 -7 6 C-8.89 5.75 -8.89 5.75 -10.81 5.5 C-13.26 5.18 -15.52 5 -18 5 C-20 4.69 -22 4.35 -24 4 C-20.25 1.77 -16.23 1.09 -12 0.31 C-11.29 0.17 -10.58 0.03 -9.84 -0.12 C-6.31 -0.78 -3.41 -1.32 0 0 Z " fill="#D8E5E2" transform="translate(838,500)"/>
<path d="M0 0 C1.56 1.06 1.56 1.06 3 3 C2.69 6.69 2.69 6.69 2 10 C1.01 10 0.02 10 -1 10 C-1 11.98 -1 13.96 -1 16 C-1.66 16 -2.32 16 -3 16 C-3 23.92 -3 31.84 -3 40 C-3.33 40 -3.66 40 -4 40 C-4 31.09 -4 22.18 -4 13 C-3.67 13 -3.34 13 -3 13 C-2.88 11.87 -2.75 10.73 -2.62 9.56 C-2.42 8.39 -2.21 7.21 -2 6 C-1.34 5.67 -0.68 5.34 0 5 C0 3.35 0 1.7 0 0 Z " fill="#335E52" transform="translate(315,480)"/>
<path d="M0 0 C0.93 0 1.87 0.01 2.83 0.01 C3.8 0.02 4.77 0.03 5.77 0.04 C6.75 0.04 7.73 0.04 8.75 0.05 C11.17 0.06 13.59 0.08 16.02 0.1 C16.02 0.43 16.02 0.76 16.02 1.1 C11.07 1.43 6.12 1.76 1.02 2.1 C1.02 2.43 1.02 2.76 1.02 3.1 C-0.65 3.56 -0.65 3.56 -2.36 4.04 C-5.78 4.92 -5.78 4.92 -7.98 6.1 C-8.31 5.44 -8.64 4.78 -8.98 4.1 C-9.97 3.77 -10.96 3.44 -11.98 3.1 C-11.98 3.76 -11.98 4.42 -11.98 5.1 C-13.3 4.77 -14.62 4.44 -15.98 4.1 C-10.48 1.66 -6.1 -0.04 0 0 Z " fill="#C8D3D2" transform="translate(815.984375,455.90234375)"/>
<path d="M0 0 C1.3 0.01 2.6 0.01 3.94 0.02 C5.31 0.04 6.68 0.05 8.05 0.07 C9.43 0.08 10.82 0.09 12.2 0.1 C15.59 0.12 18.98 0.15 22.36 0.2 C22.86 1.19 22.86 1.19 23.36 2.2 C24.57 2.35 24.57 2.35 25.8 2.51 C26.65 2.73 27.49 2.96 28.36 3.2 C29.68 5.76 29.68 5.76 30.36 8.2 C29.77 7.85 29.18 7.5 28.57 7.14 C27.78 6.68 26.99 6.23 26.18 5.76 C25.4 5.31 24.62 4.85 23.82 4.39 C19.36 2.22 15.09 2.07 10.19 2.1 C8.45 2.1 8.45 2.1 6.68 2.11 C5.48 2.12 4.29 2.12 3.05 2.13 C1.22 2.14 1.22 2.14 -0.64 2.15 C-3.64 2.16 -6.64 2.17 -9.64 2.2 C-6 -0.23 -4.32 -0.04 0 0 Z " fill="#AABCB8" transform="translate(816.63671875,464.8046875)"/>
<path d="M0 0 C1.98 0 3.96 0 6 0 C6.33 0.99 6.66 1.98 7 3 C8.32 2.67 9.64 2.34 11 2 C11 2.66 11 3.32 11 4 C11.99 4 12.98 4 14 4 C14.33 5.32 14.66 6.64 15 8 C4.44 4.92 4.44 4.92 0 3 C0 2.01 0 1.02 0 0 Z " fill="#154A3A" transform="translate(832,454)"/>
<path d="M0 0 C0.33 0 0.66 0 1 0 C1.33 5.94 1.66 11.88 2 18 C2.66 18 3.32 18 4 18 C3.59 22.83 1.54 24.83 -2 28 C-3.36 25.28 -2.38 23.89 -1.52 21.11 C-0.55 17.16 -0.52 13.12 -0.38 9.06 C-0.34 8.19 -0.3 7.31 -0.26 6.41 C-0.16 4.28 -0.08 2.14 0 0 Z " fill="#DBE5E5" transform="translate(635,499)"/>
<path d="M0 0 C0 0.33 0 0.66 0 1 C-2.31 1 -4.62 1 -7 1 C-7.33 1.99 -7.66 2.98 -8 4 C-7.67 4.66 -7.34 5.32 -7 6 C-11.75 9 -11.75 9 -14 9 C-14.33 8.01 -14.66 7.02 -15 6 C-15.66 5.34 -16.32 4.68 -17 4 C-11.03 0.52 -6.88 -0.57 0 0 Z " fill="#DBE4E3" transform="translate(909,456)"/>
<path d="M0 0 C1.94 -0.08 3.87 -0.14 5.81 -0.19 C6.89 -0.22 7.97 -0.26 9.08 -0.29 C12 0 12 0 13.89 1.51 C14.25 2 14.62 2.49 15 3 C10.46 4.75 6.67 5.27 1.81 5.25 C-0 5.26 -0 5.26 -1.86 5.27 C-5 5 -5 5 -8 3 C-2.72 3.33 2.56 3.66 8 4 C8 3.34 8 2.68 8 2 C6.58 2.06 6.58 2.06 5.12 2.12 C2 2 2 2 0 0 Z " fill="#27564C" transform="translate(252,536)"/>
<path d="M0 0 C0.99 0 1.97 0.01 2.99 0.01 C4.02 0.02 5.05 0.03 6.12 0.04 C7.68 0.04 7.68 0.04 9.27 0.05 C11.84 0.06 14.42 0.08 16.99 0.1 C16.99 0.43 16.99 0.76 16.99 1.1 C8.58 1.59 8.58 1.59 -0.01 2.1 C0.65 2.76 1.31 3.42 1.99 4.1 C-1.22 5.17 -3.65 5.1 -7.01 5.1 C-7.01 3.78 -7.01 2.46 -7.01 1.1 C-4.5 -0.15 -2.8 -0.02 0 0 Z " fill="#356156" transform="translate(247.0078125,566.90234375)"/>
<path d="M0 0 C2.48 0.5 2.48 0.5 5 1 C5 1.99 5 2.98 5 4 C13.25 4 21.5 4 30 4 C30 4.33 30 4.66 30 5 C26.05 5.02 22.1 5.04 18.15 5.05 C16.14 5.06 14.13 5.08 12.13 5.09 C10.24 5.09 10.24 5.09 8.32 5.1 C6.58 5.11 6.58 5.11 4.8 5.11 C2 5 2 5 0 4 C0 2.68 0 1.36 0 0 Z " fill="#305E51" transform="translate(355,441)"/>
<path d="M0 0 C1.32 0.66 2.64 1.32 4 2 C-6.37 8.7 -6.37 8.7 -12 9 C-11.34 8.67 -10.68 8.34 -10 8 C-10 7.34 -10 6.68 -10 6 C-7.11 3.35 -4.87 1.69 -1 1 C-0.67 0.67 -0.34 0.34 0 0 Z " fill="#E2E9E9" transform="translate(622,546)"/>
<path d="M0 0 C0.33 0.66 0.66 1.32 1 2 C1.66 2 2.32 2 3 2 C3.33 1.34 3.66 0.68 4 0 C3.46 3.38 2.89 6.7 2 10 C1.34 10 0.68 10 0 10 C0 9.34 0 8.68 0 8 C-0.66 8 -1.32 8 -2 8 C-2.99 9.32 -3.98 10.64 -5 12 C-4.34 8.7 -3.68 5.4 -3 2 C-2.34 2.66 -1.68 3.32 -1 4 C-0.67 2.68 -0.34 1.36 0 0 Z " fill="#285E4F" transform="translate(772,466)"/>
<path d="M0 0 C0.66 1.32 1.32 2.64 2 4 C-1.82 8.4 -4.47 9.81 -10 11 C-6.79 7.19 -3.59 3.45 0 0 Z " fill="#E2E9E8" transform="translate(141,480)"/>
<path d="M0 0 C0.99 0 1.98 0 3 0 C3.33 1.98 3.66 3.96 4 6 C3.34 6 2.68 6 2 6 C1.67 6.99 1.34 7.98 1 9 C-1.06 9.69 -1.06 9.69 -3 10 C-2.25 2.25 -2.25 2.25 0 0 Z " fill="#FEFEFD" transform="translate(761,475)"/>
<path d="M0 0 C0 1.32 0 2.64 0 4 C-0.66 4 -1.32 4 -2 4 C-2.66 5.65 -3.32 7.3 -4 9 C-2.68 8.67 -1.36 8.34 0 8 C-0.55 11.37 -1.05 13.08 -3 16 C-3.53 14.42 -4.05 12.84 -4.56 11.25 C-4.85 10.37 -5.14 9.49 -5.44 8.58 C-6.03 5.87 -6.09 4.53 -5 2 C-2 0 -2 0 0 0 Z " fill="#2D5C50" transform="translate(672,506)"/>
<path d="M0 0 C3.14 0.25 4.59 0.58 6.81 2.88 C8 5 8 5 8 8 C7.42 7.69 6.85 7.38 6.25 7.06 C4.16 6.07 2.25 5.48 0 5 C-0.56 3.06 -0.56 3.06 -1 1 C-0.67 0.67 -0.34 0.34 0 0 Z " fill="#E1EBEA" transform="translate(708,471)"/>
<path d="M0 0 C0.53 1.75 1.05 3.5 1.56 5.25 C1.85 6.22 2.14 7.2 2.44 8.2 C2.99 10.96 2.94 12.39 2 15 C1.67 14.34 1.34 13.68 1 13 C0.01 12.67 -0.98 12.34 -2 12 C-2.33 8.37 -2.66 4.74 -3 1 C-1 0 -1 0 0 0 Z " fill="#2D5B50" transform="translate(660,517)"/>
<path d="M0 0 C2.3 3.44 2.54 5.94 3 10 C2.67 9.01 2.34 8.02 2 7 C1.01 7.66 0.02 8.32 -1 9 C-1.99 9 -2.98 9 -4 9 C-4 7.02 -4 5.04 -4 3 C-3.01 3.33 -2.02 3.66 -1 4 C-0.67 2.68 -0.34 1.36 0 0 Z " fill="#E1E8E5" transform="translate(426,479)"/>
<path d="M0 0 C2 3 2 3 2 6 C-1.13 7.86 -3.37 8.2 -7 8 C-6.02 6.85 -5.04 5.71 -4.06 4.56 C-3.52 3.92 -2.97 3.29 -2.41 2.63 C-1.63 1.73 -0.84 0.84 0 0 Z " fill="#E3EBEB" transform="translate(165,456)"/>
<path d="M0 0 C2.54 -0.05 5.08 -0.09 7.62 -0.12 C8.34 -0.14 9.05 -0.16 9.79 -0.18 C14.26 -0.22 17.78 0.31 22 2 C22 2.66 22 3.32 22 4 C16.25 4.12 16.25 4.12 14 3 C14 2.34 14 1.68 14 1 C9.38 1 4.76 1 0 1 C0 0.67 0 0.34 0 0 Z " fill="#245A4D" transform="translate(814,556)"/>
<path d="M0 0 C0.33 0.99 0.66 1.98 1 3 C-2.3 3.33 -5.6 3.66 -9 4 C-9 4.99 -9 5.98 -9 7 C-9.66 7 -10.32 7 -11 7 C-11 6.34 -11 5.68 -11 5 C-15.46 5.5 -15.46 5.5 -20 6 C-16.79 3.86 -14.88 3.47 -11.12 2.88 C-10.1 2.71 -9.07 2.54 -8.01 2.37 C-5.3 2.04 -2.73 1.93 0 2 C0 1.34 0 0.68 0 0 Z " fill="#C1D0CD" transform="translate(861,493)"/>
<path d="M0 0 C6.6 0 13.2 0 20 0 C20 0.66 20 1.32 20 2 C18.02 2.33 16.04 2.66 14 3 C14 2.67 14 2.34 14 2 C7.07 1.5 7.07 1.5 0 1 C0 0.67 0 0.34 0 0 Z " fill="#255A4C" transform="translate(590,556)"/>
<path d="M0 0 C2.51 2.51 2.97 4.19 3.1 7.7 C3.09 8.69 3.07 9.67 3.06 10.69 C3.05 11.68 3.04 12.68 3.04 13.7 C3.02 14.46 3.01 15.22 3 16 C2.34 16 1.68 16 1 16 C-0.24 12.41 0.34 9.68 1 6 C0.67 5.67 0.34 5.34 0 5 C-0.04 3.33 -0.04 1.67 0 0 Z " fill="#E0E9E9" transform="translate(640,483)"/>
<path d="M0 0 C1 4 1 4 1 6 C-3.62 8.12 -3.62 8.12 -7 7 C-4.69 4.69 -2.38 2.38 0 0 Z " fill="#E0E8E7" transform="translate(149,472)"/>
<path d="M0 0 C0.66 0 1.32 0 2 0 C2.66 1.65 3.32 3.3 4 5 C2.35 4.67 0.7 4.34 -1 4 C-1.33 4.99 -1.66 5.98 -2 7 C-3.65 7.33 -5.3 7.66 -7 8 C-6.02 6.85 -5.04 5.71 -4.06 4.56 C-3.52 3.92 -2.97 3.29 -2.41 2.63 C-1.63 1.73 -0.84 0.84 0 0 Z " fill="#2D5549" transform="translate(142,517)"/>
<path d="M0 0 C2.57 3.85 2.55 6.43 3 11 C2.67 10.34 2.34 9.68 2 9 C1.01 9.33 0.02 9.66 -1 10 C-1.66 9.34 -2.32 8.68 -3 8 C-3 7.01 -3 6.02 -3 5 C-2.01 4.67 -1.02 4.34 0 4 C0 2.68 0 1.36 0 0 Z " fill="#346458" transform="translate(649,479)"/>
<path d="M0 0 C2.31 1.98 4.62 3.96 7 6 C6.67 6.99 6.34 7.98 6 9 C5.67 8.34 5.34 7.68 5 7 C2.98 6.35 2.98 6.35 1 6 C1 5.01 1 4.02 1 3 C0.34 2.67 -0.32 2.34 -1 2 C-0.67 1.34 -0.34 0.68 0 0 Z " fill="#E3ECE9" transform="translate(189,456)"/>
<path d="M0 0 C0.99 0.33 1.98 0.66 3 1 C3 1.66 3 2.32 3 3 C7.29 3 11.58 3 16 3 C16 3.33 16 3.66 16 4 C13.77 4.05 11.54 4.09 9.31 4.12 C7.45 4.16 7.45 4.16 5.55 4.2 C2.19 4.01 0 3.46 -3 2 C-2.01 1.34 -1.02 0.68 0 0 Z " fill="#40635A" transform="translate(363,537)"/>
<path d="M0 0 C2.62 3.06 3 3.73 3 8 C3.66 8 4.32 8 5 8 C5.33 7.01 5.66 6.02 6 5 C6 6.32 6 7.64 6 9 C4.68 9 3.36 9 2 9 C2 8.34 2 7.68 2 7 C1.34 7 0.68 7 0 7 C-0.66 5.68 -1.32 4.36 -2 3 C-1.34 3 -0.68 3 0 3 C0 2.01 0 1.02 0 0 Z " fill="#E1E6E6" transform="translate(738,529)"/>
<path d="M0 0 C2.2 0.92 3.39 2.03 4.94 3.81 C4.61 4.47 4.28 5.13 3.94 5.81 C-1.01 3.83 -1.01 3.83 -6.06 1.81 C-2.06 -0.19 -2.06 -0.19 0 0 Z " fill="#315850" transform="translate(280.0625,447.1875)"/>
<path d="M0 0 C0 0.99 0 1.98 0 3 C1.32 3 2.64 3 4 3 C4 3.66 4 4.32 4 5 C2.02 5 0.04 5 -2 5 C-2 5.66 -2 6.32 -2 7 C-3.65 7.33 -5.3 7.66 -7 8 C-6.02 6.85 -5.04 5.71 -4.06 4.56 C-3.52 3.92 -2.97 3.29 -2.41 2.63 C-1.63 1.73 -0.84 0.84 0 0 Z " fill="#255146" transform="translate(188,471)"/>
<path d="M0 0 C0.33 0.66 0.66 1.32 1 2 C1.99 2 2.98 2 4 2 C4.33 3.32 4.66 4.64 5 6 C1.7 5.01 -1.6 4.02 -5 3 C-2 1 -2 1 0 0 Z " fill="#315D52" transform="translate(842,456)"/>
<path d="M0 0 C1 3 1 3 0.38 5.06 C-1.4 7.57 -3.12 8.09 -6 9 C-5.34 7.68 -4.68 6.36 -4 5 C-3.01 5 -2.02 5 -1 5 C-1 4.34 -1 3.68 -1 3 C-2.98 3 -4.96 3 -7 3 C-7 2.67 -7 2.34 -7 2 C-4.69 1.34 -2.38 0.68 0 0 Z " fill="#386459" transform="translate(677,551)"/>
<path d="M0 0 C0.99 1.32 1.98 2.64 3 4 C2.34 5.32 1.68 6.64 1 8 C-0.32 8 -1.64 8 -3 8 C-1.12 2.25 -1.12 2.25 0 0 Z " fill="#27574B" transform="translate(681,543)"/>
<path d="M0 0 C2.39 3.83 2.56 7.6 3 12 C1.35 10.68 -0.3 9.36 -2 8 C-1.34 5.36 -0.68 2.72 0 0 Z " fill="#3E695E" transform="translate(652,490)"/>
<path d="M0 0 C0.33 0.99 0.66 1.98 1 3 C0.67 3.66 0.34 4.32 0 5 C-2.31 5.73 -4.65 6.4 -7 7 C-7.66 6.34 -8.32 5.68 -9 5 C-6.03 3.35 -3.06 1.7 0 0 Z " fill="#E5F0EE" transform="translate(273,534)"/>
<path d="M0 0 C0.33 1.32 0.66 2.64 1 4 C-1.48 5.49 -1.48 5.49 -4 7 C-4.99 6.34 -5.98 5.68 -7 5 C-4.69 3.35 -2.38 1.7 0 0 Z " fill="#1E4E41" transform="translate(292,554)"/>
<path d="M0 0 C0 3.32 -0.43 5.09 -2 8 C-4.62 9.31 -4.62 9.31 -7 10 C-5.61 5.57 -3.39 3.13 0 0 Z " fill="#E2E9E8" transform="translate(212,462)"/>
<path d="M0 0 C0.33 0.66 0.66 1.32 1 2 C1.66 2.33 2.32 2.66 3 3 C2.67 3.99 2.34 4.98 2 6 C-0.64 6 -3.28 6 -6 6 C-6 5.67 -6 5.34 -6 5 C-4.02 5 -2.04 5 0 5 C0 4.34 0 3.68 0 3 C-0.99 2.67 -1.98 2.34 -3 2 C-2.01 1.34 -1.02 0.68 0 0 Z " fill="#DEE7E6" transform="translate(364,561)"/>
<path d="M0 0 C0 0.99 0 1.98 0 3 C-2 5 -2 5 -4.5 5.31 C-5.33 5.21 -6.15 5.11 -7 5 C-7.66 4.01 -8.32 3.02 -9 2 C-7.61 2.06 -7.61 2.06 -6.19 2.12 C-2.84 2.27 -2.84 2.27 0 0 Z " fill="#D1DFDD" transform="translate(748,549)"/>
<path d="M0 0 C3.48 3.02 4.79 5.57 6 10 C5.01 10 4.02 10 3 10 C2.5 8.71 2 7.42 1.5 6.12 C1.22 5.41 0.94 4.69 0.66 3.95 C0 2 0 2 0 0 Z " fill="#D4E0DF" transform="translate(420,469)"/>
<path d="M0 0 C1.46 0.11 2.92 0.24 4.38 0.38 C5.59 0.48 5.59 0.48 6.84 0.59 C9 1 9 1 11 3 C3.57 3.29 3.57 3.29 0 1 C0 0.67 0 0.34 0 0 Z " fill="#255245" transform="translate(506,455)"/>
<path d="M0 0 C3.37 1.39 4.99 2.98 7 6 C5.35 6 3.7 6 2 6 C1.34 4.02 0.68 2.04 0 0 Z " fill="#275448" transform="translate(327,548)"/>
<path d="M0 0 C3.34 0.6 5.46 1.74 8 4 C8 4.66 8 5.32 8 6 C5.03 4.88 2.67 3.78 0 2 C0 1.34 0 0.68 0 0 Z " fill="#DCE3E3" transform="translate(791,546)"/>
<path d="M0 0 C0.33 0 0.66 0 1 0 C1 3.63 1 7.26 1 11 C0.01 11 -0.98 11 -2 11 C-1.34 7.37 -0.68 3.74 0 0 Z " fill="#28564B" transform="translate(756,519)"/>
<path d="M0 0 C0 0.66 0 1.32 0 2 C-6.75 1.25 -6.75 1.25 -9 -1 C-5.23 -2.26 -3.63 -1.37 0 0 Z " fill="#D7E4E2" transform="translate(237,563)"/>
<path d="M0 0 C1.98 0 3.96 0 6 0 C6.33 1.65 6.66 3.3 7 5 C3.35 3.75 2.22 3.33 0 0 Z " fill="#DAE6E4" transform="translate(336,555)"/>
<path d="M0 0 C0.66 0 1.32 0 2 0 C2.33 1.65 2.66 3.3 3 5 C1.68 5.33 0.36 5.66 -1 6 C-1.33 5.01 -1.66 4.02 -2 3 C-1.34 2.01 -0.68 1.02 0 0 Z " fill="#E1EAE9" transform="translate(555,479)"/>
<path d="M0 0 C0.93 2.61 1.15 3.64 0.06 6.25 C-0.46 7.12 -0.46 7.12 -1 8 C-1.99 8 -2.98 8 -4 8 C-2.88 5.03 -1.78 2.67 0 0 Z " fill="#DEE5E5" transform="translate(780,475)"/>
<path d="M0 0 C-0.99 0 -1.98 0 -3 0 C-3 0.99 -3 1.98 -3 3 C-3.66 3 -4.32 3 -5 3 C-5.33 3.99 -5.66 4.98 -6 6 C-6.33 4.02 -6.66 2.04 -7 0 C-3.87 -1.04 -3.01 -0.93 0 0 Z " fill="#D7E0E1" transform="translate(652,461)"/>
<path d="M0 0 C1.65 0 3.3 0 5 0 C4.67 0.66 4.34 1.32 4 2 C4 2.66 4 3.32 4 4 C1.36 3.67 -1.28 3.34 -4 3 C-2.68 2.67 -1.36 2.34 0 2 C0 1.34 0 0.68 0 0 Z " fill="#306155" transform="translate(389,444)"/>
<path d="M0 0 C2.31 1.98 4.62 3.96 7 6 C6.01 6.33 5.02 6.66 4 7 C1.24 4.6 0.96 3.84 0 0 Z " fill="#DCEAE7" transform="translate(565,533)"/>
<path d="M0 0 C0.33 0.66 0.66 1.32 1 2 C1.66 2 2.32 2 3 2 C3 4.97 3 7.94 3 11 C1.05 7.1 0.49 4.28 0 0 Z " fill="#9DB6B0" transform="translate(656,506)"/>
<path d="M0 0 C0.33 0.99 0.66 1.98 1 3 C0.67 3.66 0.34 4.32 0 5 C-0.66 5 -1.32 5 -2 5 C-2.33 5.99 -2.66 6.98 -3 8 C-3.75 6.25 -3.75 6.25 -4 4 C-2.06 1.75 -2.06 1.75 0 0 Z " fill="#2A5046" transform="translate(167,492)"/>
<path d="M0 0 C0.66 0 1.32 0 2 0 C4.09 4.43 4.09 4.43 3.62 7.31 C3.42 7.87 3.21 8.43 3 9 C2.67 7.35 2.34 5.7 2 4 C1.01 4 0.02 4 -1 4 C-0.67 2.68 -0.34 1.36 0 0 Z " fill="#3E645B" transform="translate(531,485)"/>
<path d="M0 0 C2.5 1.31 2.5 1.31 5 3 C5 3.99 5 4.98 5 6 C4.34 6 3.68 6 3 6 C3 5.34 3 4.68 3 4 C2.34 4 1.68 4 1 4 C0.34 4.99 -0.32 5.98 -1 7 C-0.67 4.69 -0.34 2.38 0 0 Z " fill="#26574C" transform="translate(891,474)"/>
<path d="M0 0 C0.66 0.33 1.32 0.66 2 1 C0.81 3.44 0.81 3.44 -1 6 C-3.69 6.81 -3.69 6.81 -6 7 C-4.02 4.69 -2.04 2.38 0 0 Z " fill="#2B5248" transform="translate(195,464)"/>
<path d="M0 0 C2.02 0.07 4.04 0.13 6.05 0.2 C5.06 0.69 5.06 0.69 4.05 1.2 C4.05 1.86 4.05 2.52 4.05 3.2 C1.41 2.87 -1.23 2.54 -3.95 2.2 C-1.95 0.2 -1.95 0.2 0 0 Z " fill="#C1D3CF" transform="translate(239.9453125,445.8046875)"/>
<path d="M0 0 C3.12 -0.19 3.12 -0.19 6 0 C5.01 0.5 5.01 0.5 4 1 C4 1.66 4 2.32 4 3 C4.66 3.33 5.32 3.66 6 4 C3.36 3.67 0.72 3.34 -2 3 C-1.34 2.01 -0.68 1.02 0 0 Z " fill="#38675C" transform="translate(268,444)"/>
<path d="M0 0 C-0.99 0 -1.98 0 -3 0 C-3 0.66 -3 1.32 -3 2 C-5.31 2.33 -7.62 2.66 -10 3 C-4.38 -1.31 -4.38 -1.31 0 0 Z " fill="#3D655A" transform="translate(587,467)"/>
<path d="M0 0 C1 3 1 3 -0.25 5.62 C-2 8 -2 8 -5 9 C-3.75 5.54 -2.32 2.85 0 0 Z " fill="#E0E8E9" transform="translate(327,466)"/>
<path d="M0 0 C0.58 0.56 1.15 1.11 1.75 1.69 C1.75 2.35 1.75 3.01 1.75 3.69 C-1.22 2.56 -3.58 1.46 -6.25 -0.31 C-3.47 -1.41 -2.65 -1.55 0 0 Z " fill="#DFE7E6" transform="translate(618.25,467.3125)"/>
<path d="M0 0 C6.62 -0.25 6.62 -0.25 10 2 C10 2.66 10 3.32 10 4 C6.7 3.01 3.4 2.02 0 1 C0 0.67 0 0.34 0 0 Z " fill="#456B61" transform="translate(612,458)"/>
<path d="M0 0 C0 0.99 0 1.98 0 3 C-0.33 3.33 -0.66 3.66 -1 4 C-0.34 4.66 0.32 5.32 1 6 C-0.88 6.62 -0.88 6.62 -3 7 C-3.66 6.34 -4.32 5.68 -5 5 C-3.35 3.35 -1.7 1.7 0 0 Z " fill="#D7E4E2" transform="translate(173,448)"/>
</svg>
