<svg xmlns="http://www.w3.org/2000/svg" xmlns:xlink="http://www.w3.org/1999/xlink" width="300" zoomAndPan="magnify" viewBox="0 0 224.87999 89.999999" height="120" preserveAspectRatio="xMidYMid meet" version="1.0"><metadata/><defs><g/><clipPath id="f3ce86baa9"><path d="M 0 0.0234375 L 224.761719 0.0234375 L 224.761719 89.976562 L 0 89.976562 Z M 0 0.0234375 " clip-rule="nonzero"/></clipPath></defs><g clip-path="url(#f3ce86baa9)"><path fill="#ffffff" d="M 0 0.0234375 L 224.878906 0.0234375 L 224.878906 89.976562 L 0 89.976562 Z M 0 0.0234375 " fill-opacity="1" fill-rule="nonzero"/><path fill="#ffffff" d="M 0 0.0234375 L 224.878906 0.0234375 L 224.878906 89.976562 L 0 89.976562 Z M 0 0.0234375 " fill-opacity="1" fill-rule="nonzero"/></g><g fill="#712024" fill-opacity="0.4"><g transform="translate(15.777412, 68.774912)"><g><path d="M 4.25 -40.0625 L 13.90625 -40.0625 C 21.96875 -40.0625 27.609375 -38.15625 30.828125 -34.34375 C 34.046875 -30.53125 35.65625 -25.988281 35.65625 -20.71875 C 35.65625 -17.039062 34.960938 -13.648438 33.578125 -10.546875 C 32.203125 -7.441406 29.921875 -4.90625 26.734375 -2.9375 C 23.554688 -0.976562 19.390625 0 14.234375 0 L 4.25 0 Z M 14.875 -5.390625 C 19.894531 -5.390625 23.539062 -6.816406 25.8125 -9.671875 C 28.082031 -12.523438 29.21875 -16.113281 29.21875 -20.4375 C 29.21875 -24.65625 28.070312 -28.085938 25.78125 -30.734375 C 23.488281 -33.390625 19.851562 -34.71875 14.875 -34.71875 L 10.359375 -34.71875 L 10.359375 -5.390625 Z M 14.875 -5.390625 "/></g></g></g><g fill="#712024" fill-opacity="0.4"><g transform="translate(53.28033, 68.774912)"><g><path d="M 13.46875 0.546875 C 11.28125 0.546875 9.113281 0.164062 6.96875 -0.59375 C 4.832031 -1.363281 3.289062 -2.21875 2.34375 -3.15625 L 5.234375 -8.34375 C 5.992188 -7.65625 7.179688 -6.9375 8.796875 -6.1875 C 10.421875 -5.4375 11.976562 -5.0625 13.46875 -5.0625 C 15.394531 -5.0625 16.960938 -5.515625 18.171875 -6.421875 C 19.390625 -7.335938 20 -8.59375 20 -10.1875 C 20 -11.425781 19.671875 -12.5 19.015625 -13.40625 C 18.367188 -14.320312 17.570312 -15.078125 16.625 -15.671875 C 15.675781 -16.273438 14.332031 -17.007812 12.59375 -17.875 C 10.519531 -18.894531 9.101562 -19.660156 8.34375 -20.171875 C 4.8125 -22.535156 3.046875 -25.804688 3.046875 -29.984375 C 3.046875 -33.429688 4.191406 -36.070312 6.484375 -37.90625 C 8.773438 -39.75 11.664062 -40.671875 15.15625 -40.671875 C 18.894531 -40.671875 22.078125 -39.597656 24.703125 -37.453125 L 21.8125 -32.484375 C 21.113281 -33.210938 20.140625 -33.835938 18.890625 -34.359375 C 17.640625 -34.890625 16.300781 -35.15625 14.875 -35.15625 C 13.0625 -35.15625 11.632812 -34.742188 10.59375 -33.921875 C 9.5625 -33.109375 9.046875 -31.90625 9.046875 -30.3125 C 9.046875 -29.1875 9.375 -28.175781 10.03125 -27.28125 C 10.6875 -26.394531 11.515625 -25.625 12.515625 -24.96875 C 13.515625 -24.3125 14.867188 -23.507812 16.578125 -22.5625 C 18.210938 -21.65625 19.460938 -20.9375 20.328125 -20.40625 C 21.203125 -19.882812 22.019531 -19.257812 22.78125 -18.53125 C 23.84375 -17.59375 24.695312 -16.46875 25.34375 -15.15625 C 26 -13.84375 26.328125 -12.40625 26.328125 -10.84375 C 26.328125 -8.414062 25.769531 -6.347656 24.65625 -4.640625 C 23.550781 -2.929688 22.023438 -1.640625 20.078125 -0.765625 C 18.140625 0.109375 15.9375 0.546875 13.46875 0.546875 Z M 13.46875 0.546875 "/></g></g></g><g fill="#712024" fill-opacity="0.4"><g transform="translate(80.262783, 68.774912)"><g><path d="M 11.890625 -34.71875 L 1.640625 -34.71875 L 1.640625 -40.0625 L 28.296875 -40.0625 L 28.296875 -34.71875 L 17.9375 -34.71875 L 17.9375 0 L 11.890625 0 Z M 11.890625 -34.71875 "/></g></g></g><g fill="#712024" fill-opacity="0.4"><g transform="translate(110.188801, 68.774912)"><g><path d="M 4.203125 -40.0625 L 21.75 -40.0625 L 21.75 -34.71875 L 10.25 -34.71875 L 10.25 -23.65625 L 19.515625 -23.65625 L 19.515625 -18.203125 L 10.25 -18.203125 L 10.25 -5.390625 L 23.546875 -5.390625 L 23.546875 0 L 4.203125 0 Z M 4.203125 -40.0625 "/></g></g></g><g fill="#712024" fill-opacity="0.4"><g transform="translate(135.644991, 68.774912)"><g><path d="M 4.25 -40.0625 L 10.40625 -40.0625 L 10.40625 -5.453125 L 21.921875 -5.453125 L 21.921875 0 L 4.25 0 Z M 4.25 -40.0625 "/></g></g></g><g fill="#712024" fill-opacity="0.4"><g transform="translate(159.193337, 68.774912)"><g><path d="M 4.953125 -40.0625 L 11.0625 -40.0625 L 11.0625 0 L 4.953125 0 Z M 4.953125 -40.0625 "/></g></g></g><g fill="#712024" fill-opacity="0.4"><g transform="translate(175.219295, 68.774912)"><g><path d="M 10.1875 -25.953125 L 10.359375 -21.59375 L 10.359375 0 L 4.25 0 L 4.25 -40.125 L 5.015625 -40.125 L 28.5625 -13.84375 L 28.34375 -18.421875 L 28.34375 -40.0625 L 34.453125 -40.0625 L 34.453125 0 L 33.640625 0 Z M 10.1875 -25.953125 "/></g></g></g><g fill="#712024" fill-opacity="1"><g transform="translate(13.368227, 66.365728)"><g><path d="M 4.25 -40.0625 L 13.90625 -40.0625 C 21.96875 -40.0625 27.609375 -38.15625 30.828125 -34.34375 C 34.046875 -30.53125 35.65625 -25.988281 35.65625 -20.71875 C 35.65625 -17.039062 34.960938 -13.648438 33.578125 -10.546875 C 32.203125 -7.441406 29.921875 -4.90625 26.734375 -2.9375 C 23.554688 -0.976562 19.390625 0 14.234375 0 L 4.25 0 Z M 14.875 -5.390625 C 19.894531 -5.390625 23.539062 -6.816406 25.8125 -9.671875 C 28.082031 -12.523438 29.21875 -16.113281 29.21875 -20.4375 C 29.21875 -24.65625 28.070312 -28.085938 25.78125 -30.734375 C 23.488281 -33.390625 19.851562 -34.71875 14.875 -34.71875 L 10.359375 -34.71875 L 10.359375 -5.390625 Z M 14.875 -5.390625 "/></g></g></g><g fill="#712024" fill-opacity="1"><g transform="translate(50.871146, 66.365728)"><g><path d="M 13.46875 0.546875 C 11.28125 0.546875 9.113281 0.164062 6.96875 -0.59375 C 4.832031 -1.363281 3.289062 -2.21875 2.34375 -3.15625 L 5.234375 -8.34375 C 5.992188 -7.65625 7.179688 -6.9375 8.796875 -6.1875 C 10.421875 -5.4375 11.976562 -5.0625 13.46875 -5.0625 C 15.394531 -5.0625 16.960938 -5.515625 18.171875 -6.421875 C 19.390625 -7.335938 20 -8.59375 20 -10.1875 C 20 -11.425781 19.671875 -12.5 19.015625 -13.40625 C 18.367188 -14.320312 17.570312 -15.078125 16.625 -15.671875 C 15.675781 -16.273438 14.332031 -17.007812 12.59375 -17.875 C 10.519531 -18.894531 9.101562 -19.660156 8.34375 -20.171875 C 4.8125 -22.535156 3.046875 -25.804688 3.046875 -29.984375 C 3.046875 -33.429688 4.191406 -36.070312 6.484375 -37.90625 C 8.773438 -39.75 11.664062 -40.671875 15.15625 -40.671875 C 18.894531 -40.671875 22.078125 -39.597656 24.703125 -37.453125 L 21.8125 -32.484375 C 21.113281 -33.210938 20.140625 -33.835938 18.890625 -34.359375 C 17.640625 -34.890625 16.300781 -35.15625 14.875 -35.15625 C 13.0625 -35.15625 11.632812 -34.742188 10.59375 -33.921875 C 9.5625 -33.109375 9.046875 -31.90625 9.046875 -30.3125 C 9.046875 -29.1875 9.375 -28.175781 10.03125 -27.28125 C 10.6875 -26.394531 11.515625 -25.625 12.515625 -24.96875 C 13.515625 -24.3125 14.867188 -23.507812 16.578125 -22.5625 C 18.210938 -21.65625 19.460938 -20.9375 20.328125 -20.40625 C 21.203125 -19.882812 22.019531 -19.257812 22.78125 -18.53125 C 23.84375 -17.59375 24.695312 -16.46875 25.34375 -15.15625 C 26 -13.84375 26.328125 -12.40625 26.328125 -10.84375 C 26.328125 -8.414062 25.769531 -6.347656 24.65625 -4.640625 C 23.550781 -2.929688 22.023438 -1.640625 20.078125 -0.765625 C 18.140625 0.109375 15.9375 0.546875 13.46875 0.546875 Z M 13.46875 0.546875 "/></g></g></g><g fill="#712024" fill-opacity="1"><g transform="translate(77.853598, 66.365728)"><g><path d="M 11.890625 -34.71875 L 1.640625 -34.71875 L 1.640625 -40.0625 L 28.296875 -40.0625 L 28.296875 -34.71875 L 17.9375 -34.71875 L 17.9375 0 L 11.890625 0 Z M 11.890625 -34.71875 "/></g></g></g><g fill="#712024" fill-opacity="1"><g transform="translate(107.779617, 66.365728)"><g><path d="M 4.203125 -40.0625 L 21.75 -40.0625 L 21.75 -34.71875 L 10.25 -34.71875 L 10.25 -23.65625 L 19.515625 -23.65625 L 19.515625 -18.203125 L 10.25 -18.203125 L 10.25 -5.390625 L 23.546875 -5.390625 L 23.546875 0 L 4.203125 0 Z M 4.203125 -40.0625 "/></g></g></g><g fill="#712024" fill-opacity="1"><g transform="translate(133.235807, 66.365728)"><g><path d="M 4.25 -40.0625 L 10.40625 -40.0625 L 10.40625 -5.453125 L 21.921875 -5.453125 L 21.921875 0 L 4.25 0 Z M 4.25 -40.0625 "/></g></g></g><g fill="#712024" fill-opacity="1"><g transform="translate(156.784152, 66.365728)"><g><path d="M 4.953125 -40.0625 L 11.0625 -40.0625 L 11.0625 0 L 4.953125 0 Z M 4.953125 -40.0625 "/></g></g></g><g fill="#712024" fill-opacity="1"><g transform="translate(172.810111, 66.365728)"><g><path d="M 10.1875 -25.953125 L 10.359375 -21.59375 L 10.359375 0 L 4.25 0 L 4.25 -40.125 L 5.015625 -40.125 L 28.5625 -13.84375 L 28.34375 -18.421875 L 28.34375 -40.0625 L 34.453125 -40.0625 L 34.453125 0 L 33.640625 0 Z M 10.1875 -25.953125 "/></g></g></g></svg>