<svg xmlns="http://www.w3.org/2000/svg" xmlns:xlink="http://www.w3.org/1999/xlink" width="300" zoomAndPan="magnify" viewBox="0 0 224.87999 89.999999" height="120" preserveAspectRatio="xMidYMid meet" version="1.0"><metadata/><defs><g/><clipPath id="887ef541f6"><path d="M 0 0.0234375 L 224.761719 0.0234375 L 224.761719 89.976562 L 0 89.976562 Z M 0 0.0234375 " clip-rule="nonzero"/></clipPath><clipPath id="37a49335ec"><rect x="0" width="182" y="0" height="62"/></clipPath></defs><g clip-path="url(#887ef541f6)"><path fill="#ffffff" d="M 0 0.0234375 L 224.878906 0.0234375 L 224.878906 89.976562 L 0 89.976562 Z M 0 0.0234375 " fill-opacity="1" fill-rule="nonzero"/><path fill="#ffffff" d="M 0 0.0234375 L 224.878906 0.0234375 L 224.878906 89.976562 L 0 89.976562 Z M 0 0.0234375 " fill-opacity="1" fill-rule="nonzero"/></g><g transform="matrix(1, 0, 0, 1, 22, 14)"><g clip-path="url(#37a49335ec)"><g fill="#ff914d" fill-opacity="1"><g transform="translate(0.158809, 47.816416)"><g><path d="M 3.625 -4.765625 L 3.625 -28.703125 C 3.6875 -31.648438 5.160156 -33.125 8.046875 -33.125 L 22.046875 -33.125 C 23.234375 -33.09375 24.175781 -32.769531 24.875 -32.15625 C 25.570312 -31.539062 25.921875 -30.703125 25.921875 -29.640625 C 25.921875 -28.585938 25.5625 -27.742188 24.84375 -27.109375 C 24.132812 -26.484375 23.203125 -26.171875 22.046875 -26.171875 L 11.21875 -26.171875 L 11.21875 -19.71875 L 19.71875 -19.71875 C 20.769531 -19.675781 21.617188 -19.375 22.265625 -18.8125 C 22.910156 -18.25 23.234375 -17.488281 23.234375 -16.53125 C 23.234375 -15.601562 22.910156 -14.847656 22.265625 -14.265625 C 21.617188 -13.691406 20.769531 -13.40625 19.71875 -13.40625 L 11.21875 -13.40625 L 11.21875 -3.921875 C 11.21875 -2.628906 10.878906 -1.59375 10.203125 -0.8125 C 9.523438 -0.0390625 8.609375 0.34375 7.453125 0.34375 C 6.285156 0.34375 5.351562 -0.0507812 4.65625 -0.84375 C 3.96875 -1.632812 3.625 -2.660156 3.625 -3.921875 Z M 3.625 -4.765625 "/></g></g></g><g fill="#ff914d" fill-opacity="1"><g transform="translate(26.722337, 47.816416)"><g><path d="M 17.53125 -11.625 L 17.53125 -20.15625 C 17.5625 -21.28125 17.875 -22.171875 18.46875 -22.828125 C 19.0625 -23.492188 19.859375 -23.828125 20.859375 -23.828125 C 21.816406 -23.828125 22.601562 -23.488281 23.21875 -22.8125 C 23.832031 -22.132812 24.140625 -21.25 24.140625 -20.15625 L 24.140625 -11.078125 C 24.140625 -9.453125 23.957031 -8.039062 23.59375 -6.84375 C 23.226562 -5.65625 22.628906 -4.550781 21.796875 -3.53125 C 20.804688 -2.269531 19.582031 -1.28125 18.125 -0.5625 C 16.664062 0.144531 15.144531 0.5 13.5625 0.5 C 11.707031 0.5 9.941406 0.03125 8.265625 -0.90625 C 6.597656 -1.851562 5.265625 -3.140625 4.265625 -4.765625 C 3.804688 -5.523438 3.453125 -6.46875 3.203125 -7.59375 C 2.953125 -8.71875 2.828125 -9.925781 2.828125 -11.21875 L 2.828125 -20.15625 C 2.859375 -21.28125 3.164062 -22.171875 3.75 -22.828125 C 4.332031 -23.492188 5.117188 -23.828125 6.109375 -23.828125 C 7.097656 -23.828125 7.898438 -23.488281 8.515625 -22.8125 C 9.128906 -22.132812 9.4375 -21.25 9.4375 -20.15625 L 9.4375 -11.8125 C 9.4375 -10.820312 9.46875 -10.109375 9.53125 -9.671875 C 9.601562 -9.242188 9.71875 -8.832031 9.875 -8.4375 C 10.175781 -7.78125 10.664062 -7.226562 11.34375 -6.78125 C 12.019531 -6.332031 12.738281 -6.109375 13.5 -6.109375 C 14.664062 -6.109375 15.628906 -6.519531 16.390625 -7.34375 C 17.148438 -8.175781 17.53125 -9.1875 17.53125 -10.375 Z M 17.53125 -11.625 "/></g></g></g><g fill="#ff914d" fill-opacity="1"><g transform="translate(53.683081, 47.816416)"><g><path d="M 2.984375 -4.078125 L 2.984375 -19.015625 C 2.984375 -19.515625 2.988281 -19.921875 3 -20.234375 C 3.019531 -20.546875 3.035156 -20.8125 3.046875 -21.03125 C 3.066406 -21.25 3.109375 -21.4375 3.171875 -21.59375 C 3.242188 -21.757812 3.328125 -21.925781 3.421875 -22.09375 C 4.085938 -23.25 5.03125 -23.828125 6.25 -23.828125 C 7.613281 -23.828125 8.625 -23.179688 9.28125 -21.890625 C 10.875 -23.285156 12.582031 -23.984375 14.40625 -23.984375 C 15 -23.984375 15.550781 -23.875 16.0625 -23.65625 C 16.570312 -23.445312 17.015625 -23.160156 17.390625 -22.796875 C 17.773438 -22.429688 18.082031 -22 18.3125 -21.5 C 18.550781 -21 18.671875 -20.46875 18.671875 -19.90625 C 18.671875 -18.820312 18.28125 -17.894531 17.5 -17.125 C 16.726562 -16.363281 15.796875 -15.984375 14.703125 -15.984375 C 14.234375 -15.984375 13.875 -16.03125 13.625 -16.125 C 13.382812 -16.226562 12.945312 -16.460938 12.3125 -16.828125 C 11.8125 -17.128906 11.382812 -17.28125 11.03125 -17.28125 C 10.5 -17.28125 10.125 -17.046875 9.90625 -16.578125 C 9.6875 -16.117188 9.578125 -15.34375 9.578125 -14.25 L 9.578125 -3.328125 C 9.546875 -2.203125 9.238281 -1.304688 8.65625 -0.640625 C 8.082031 0.015625 7.300781 0.34375 6.3125 0.34375 C 5.3125 0.34375 4.503906 0.00390625 3.890625 -0.671875 C 3.285156 -1.347656 2.984375 -2.234375 2.984375 -3.328125 Z M 2.984375 -4.078125 "/></g></g></g><g fill="#ff914d" fill-opacity="1"><g transform="translate(72.352024, 47.816416)"><g><path d="M 17.421875 -1.484375 L 9.578125 -9.78125 L 9.578125 -3.328125 C 9.546875 -2.203125 9.238281 -1.304688 8.65625 -0.640625 C 8.082031 0.015625 7.300781 0.34375 6.3125 0.34375 C 5.3125 0.34375 4.503906 0.00390625 3.890625 -0.671875 C 3.285156 -1.347656 2.984375 -2.234375 2.984375 -3.328125 L 2.984375 -29.453125 C 3.015625 -30.578125 3.328125 -31.46875 3.921875 -32.125 C 4.515625 -32.789062 5.3125 -33.125 6.3125 -33.125 C 7.300781 -33.125 8.09375 -32.78125 8.6875 -32.09375 C 9.28125 -31.414062 9.578125 -30.535156 9.578125 -29.453125 L 9.578125 -16.1875 L 17.734375 -22.59375 L 18.28125 -23.09375 C 19.164062 -23.71875 20.007812 -24.03125 20.8125 -24.03125 C 21.664062 -24.03125 22.414062 -23.691406 23.0625 -23.015625 C 23.707031 -22.335938 24.03125 -21.550781 24.03125 -20.65625 C 24.03125 -19.5 23.46875 -18.523438 22.34375 -17.734375 L 21.75 -17.28125 L 15.4375 -12.71875 L 22.203125 -6.203125 C 22.921875 -5.515625 23.40625 -4.953125 23.65625 -4.515625 C 23.90625 -4.085938 24.03125 -3.59375 24.03125 -3.03125 C 24.03125 -2.070312 23.691406 -1.257812 23.015625 -0.59375 C 22.335938 0.0625 21.519531 0.390625 20.5625 0.390625 C 19.695312 0.390625 18.816406 -0.0507812 17.921875 -0.9375 Z M 17.421875 -1.484375 "/></g></g></g><g fill="#ff914d" fill-opacity="1"><g transform="translate(97.028793, 47.816416)"><g><path d="M 3.078125 -4.078125 L 3.078125 -20.15625 C 3.109375 -21.28125 3.421875 -22.171875 4.015625 -22.828125 C 4.617188 -23.492188 5.398438 -23.828125 6.359375 -23.828125 C 7.347656 -23.828125 8.148438 -23.488281 8.765625 -22.8125 C 9.378906 -22.132812 9.6875 -21.25 9.6875 -20.15625 L 9.6875 -3.328125 C 9.65625 -2.203125 9.335938 -1.304688 8.734375 -0.640625 C 8.140625 0.015625 7.363281 0.34375 6.40625 0.34375 C 5.414062 0.34375 4.613281 0.00390625 4 -0.671875 C 3.382812 -1.347656 3.078125 -2.234375 3.078125 -3.328125 Z M 6.359375 -33.171875 C 7.453125 -33.171875 8.378906 -32.789062 9.140625 -32.03125 C 9.898438 -31.269531 10.28125 -30.34375 10.28125 -29.25 C 10.28125 -28.15625 9.890625 -27.21875 9.109375 -26.4375 C 8.328125 -25.664062 7.375 -25.28125 6.25 -25.28125 C 5.726562 -25.28125 5.222656 -25.382812 4.734375 -25.59375 C 4.253906 -25.8125 3.832031 -26.09375 3.46875 -26.4375 C 3.113281 -26.789062 2.828125 -27.195312 2.609375 -27.65625 C 2.390625 -28.125 2.28125 -28.617188 2.28125 -29.140625 C 2.28125 -30.304688 2.671875 -31.269531 3.453125 -32.03125 C 4.234375 -32.789062 5.203125 -33.171875 6.359375 -33.171875 Z M 6.359375 -33.171875 "/></g></g></g><g fill="#ff914d" fill-opacity="1"><g transform="translate(109.590613, 47.816416)"><g><path d="M 1.34375 -11.8125 C 1.34375 -13.46875 1.664062 -15.039062 2.3125 -16.53125 C 2.957031 -18.019531 3.832031 -19.316406 4.9375 -20.421875 C 6.050781 -21.535156 7.34375 -22.414062 8.8125 -23.0625 C 10.289062 -23.707031 11.851562 -24.03125 13.5 -24.03125 C 14.757812 -24.03125 16.007812 -23.832031 17.25 -23.4375 C 18.5 -23.039062 19.632812 -22.492188 20.65625 -21.796875 C 21.550781 -21.171875 22.171875 -20.597656 22.515625 -20.078125 C 22.867188 -19.566406 23.046875 -18.96875 23.046875 -18.28125 C 23.046875 -17.351562 22.722656 -16.570312 22.078125 -15.9375 C 21.429688 -15.3125 20.625 -15 19.65625 -15 C 19.257812 -15 18.929688 -15.046875 18.671875 -15.140625 C 18.410156 -15.242188 18.046875 -15.476562 17.578125 -15.84375 C 16.847656 -16.40625 16.207031 -16.800781 15.65625 -17.03125 C 15.113281 -17.257812 14.492188 -17.375 13.796875 -17.375 C 13.003906 -17.375 12.253906 -17.222656 11.546875 -16.921875 C 10.835938 -16.628906 10.222656 -16.226562 9.703125 -15.71875 C 9.191406 -15.207031 8.785156 -14.609375 8.484375 -13.921875 C 8.191406 -13.242188 8.046875 -12.523438 8.046875 -11.765625 C 8.046875 -10.972656 8.191406 -10.238281 8.484375 -9.5625 C 8.785156 -8.882812 9.191406 -8.296875 9.703125 -7.796875 C 10.222656 -7.296875 10.820312 -6.894531 11.5 -6.59375 C 12.175781 -6.300781 12.910156 -6.15625 13.703125 -6.15625 C 14.734375 -6.15625 15.578125 -6.367188 16.234375 -6.796875 C 16.335938 -6.867188 16.53125 -7.003906 16.8125 -7.203125 C 17.09375 -7.398438 17.460938 -7.664062 17.921875 -8 C 18.285156 -8.257812 18.625 -8.445312 18.9375 -8.5625 C 19.257812 -8.675781 19.601562 -8.734375 19.96875 -8.734375 C 20.894531 -8.734375 21.675781 -8.410156 22.3125 -7.765625 C 22.957031 -7.117188 23.28125 -6.332031 23.28125 -5.40625 C 23.28125 -4.675781 23 -3.960938 22.4375 -3.265625 C 21.875 -2.578125 21.140625 -1.953125 20.234375 -1.390625 C 19.328125 -0.828125 18.300781 -0.367188 17.15625 -0.015625 C 16.007812 0.328125 14.84375 0.5 13.65625 0.5 C 11.96875 0.5 10.367188 0.175781 8.859375 -0.46875 C 7.359375 -1.113281 6.050781 -2 4.9375 -3.125 C 3.832031 -4.25 2.957031 -5.554688 2.3125 -7.046875 C 1.664062 -8.535156 1.34375 -10.125 1.34375 -11.8125 Z M 1.34375 -11.8125 "/></g></g></g><g fill="#ff914d" fill-opacity="1"><g transform="translate(133.870178, 47.816416)"><g><path d="M 17.421875 -1.484375 L 9.578125 -9.78125 L 9.578125 -3.328125 C 9.546875 -2.203125 9.238281 -1.304688 8.65625 -0.640625 C 8.082031 0.015625 7.300781 0.34375 6.3125 0.34375 C 5.3125 0.34375 4.503906 0.00390625 3.890625 -0.671875 C 3.285156 -1.347656 2.984375 -2.234375 2.984375 -3.328125 L 2.984375 -29.453125 C 3.015625 -30.578125 3.328125 -31.46875 3.921875 -32.125 C 4.515625 -32.789062 5.3125 -33.125 6.3125 -33.125 C 7.300781 -33.125 8.09375 -32.78125 8.6875 -32.09375 C 9.28125 -31.414062 9.578125 -30.535156 9.578125 -29.453125 L 9.578125 -16.1875 L 17.734375 -22.59375 L 18.28125 -23.09375 C 19.164062 -23.71875 20.007812 -24.03125 20.8125 -24.03125 C 21.664062 -24.03125 22.414062 -23.691406 23.0625 -23.015625 C 23.707031 -22.335938 24.03125 -21.550781 24.03125 -20.65625 C 24.03125 -19.5 23.46875 -18.523438 22.34375 -17.734375 L 21.75 -17.28125 L 15.4375 -12.71875 L 22.203125 -6.203125 C 22.921875 -5.515625 23.40625 -4.953125 23.65625 -4.515625 C 23.90625 -4.085938 24.03125 -3.59375 24.03125 -3.03125 C 24.03125 -2.070312 23.691406 -1.257812 23.015625 -0.59375 C 22.335938 0.0625 21.519531 0.390625 20.5625 0.390625 C 19.695312 0.390625 18.816406 -0.0507812 17.921875 -0.9375 Z M 17.421875 -1.484375 "/></g></g></g><g fill="#ff914d" fill-opacity="1"><g transform="translate(158.546947, 47.816416)"><g><path d="M 11.21875 -24.03125 C 12.28125 -24.03125 13.289062 -23.90625 14.25 -23.65625 C 15.207031 -23.40625 16.039062 -23.066406 16.75 -22.640625 C 17.46875 -22.210938 18.039062 -21.71875 18.46875 -21.15625 C 18.90625 -20.59375 19.125 -19.992188 19.125 -19.359375 C 19.125 -18.597656 18.820312 -17.921875 18.21875 -17.328125 C 17.625 -16.734375 16.929688 -16.4375 16.140625 -16.4375 C 15.710938 -16.4375 15.289062 -16.507812 14.875 -16.65625 C 14.457031 -16.8125 13.9375 -17.066406 13.3125 -17.421875 C 12.507812 -17.890625 11.941406 -18.195312 11.609375 -18.34375 C 11.285156 -18.5 10.941406 -18.578125 10.578125 -18.578125 C 10.210938 -18.578125 9.910156 -18.457031 9.671875 -18.21875 C 9.441406 -17.988281 9.328125 -17.722656 9.328125 -17.421875 C 9.328125 -16.859375 9.609375 -16.410156 10.171875 -16.078125 C 10.742188 -15.753906 11.789062 -15.394531 13.3125 -15 C 14.4375 -14.695312 15.296875 -14.4375 15.890625 -14.21875 C 16.484375 -14.007812 17.046875 -13.769531 17.578125 -13.5 C 18.609375 -12.9375 19.40625 -12.148438 19.96875 -11.140625 C 20.53125 -10.140625 20.8125 -9.007812 20.8125 -7.75 C 20.8125 -6.519531 20.578125 -5.398438 20.109375 -4.390625 C 19.648438 -3.378906 19 -2.507812 18.15625 -1.78125 C 17.3125 -1.050781 16.300781 -0.488281 15.125 -0.09375 C 13.945312 0.300781 12.660156 0.5 11.265625 0.5 C 9.972656 0.5 8.734375 0.316406 7.546875 -0.046875 C 6.359375 -0.410156 5.300781 -0.890625 4.375 -1.484375 C 3.445312 -2.085938 2.707031 -2.773438 2.15625 -3.546875 C 1.613281 -4.328125 1.34375 -5.148438 1.34375 -6.015625 C 1.34375 -6.898438 1.640625 -7.679688 2.234375 -8.359375 C 2.828125 -9.046875 3.539062 -9.390625 4.375 -9.390625 C 4.9375 -9.390625 5.488281 -9.25 6.03125 -8.96875 C 6.582031 -8.6875 7.1875 -8.265625 7.84375 -7.703125 C 8.34375 -7.265625 8.765625 -6.910156 9.109375 -6.640625 C 9.460938 -6.378906 9.78125 -6.175781 10.0625 -6.03125 C 10.34375 -5.882812 10.613281 -5.785156 10.875 -5.734375 C 11.132812 -5.679688 11.429688 -5.65625 11.765625 -5.65625 C 12.429688 -5.65625 12.976562 -5.820312 13.40625 -6.15625 C 13.832031 -6.488281 14.046875 -6.90625 14.046875 -7.40625 C 14.046875 -8.195312 13.320312 -8.757812 11.875 -9.09375 C 10.945312 -9.320312 9.9375 -9.617188 8.84375 -9.984375 C 7.75 -10.347656 6.851562 -10.695312 6.15625 -11.03125 C 5.0625 -11.59375 4.179688 -12.398438 3.515625 -13.453125 C 2.859375 -14.515625 2.53125 -15.660156 2.53125 -16.890625 C 2.53125 -18.273438 2.953125 -19.5625 3.796875 -20.75 C 4.640625 -21.945312 5.773438 -22.828125 7.203125 -23.390625 C 8.328125 -23.816406 9.664062 -24.03125 11.21875 -24.03125 Z M 11.21875 -24.03125 "/></g></g></g></g></g></svg>