<svg xmlns="http://www.w3.org/2000/svg" xmlns:xlink="http://www.w3.org/1999/xlink" width="300" zoomAndPan="magnify" viewBox="0 0 224.87999 89.999999" height="120" preserveAspectRatio="xMidYMid meet" version="1.0"><metadata/><defs><g/><clipPath id="fb5f626eed"><path d="M 0 0.0234375 L 224.761719 0.0234375 L 224.761719 89.976562 L 0 89.976562 Z M 0 0.0234375 " clip-rule="nonzero"/></clipPath><clipPath id="9a694ef3b6"><rect x="0" width="192" y="0" height="55"/></clipPath></defs><g clip-path="url(#fb5f626eed)"><path fill="#ffffff" d="M 0 0.0234375 L 224.878906 0.0234375 L 224.878906 89.976562 L 0 89.976562 Z M 0 0.0234375 " fill-opacity="1" fill-rule="nonzero"/><path fill="#ffffff" d="M 0 0.0234375 L 224.878906 0.0234375 L 224.878906 89.976562 L 0 89.976562 Z M 0 0.0234375 " fill-opacity="1" fill-rule="nonzero"/></g><g transform="matrix(1, 0, 0, 1, 17, 17)"><g clip-path="url(#9a694ef3b6)"><g fill="#737373" fill-opacity="1"><g transform="translate(0.230729, 42.127092)"><g><path d="M 21.296875 -1.328125 L 10 -11.953125 L 10 -3.5 C 10 -2.34375 9.695312 -1.414062 9.09375 -0.71875 C 8.488281 -0.03125 7.671875 0.3125 6.640625 0.3125 C 5.609375 0.3125 4.78125 -0.0390625 4.15625 -0.75 C 3.539062 -1.457031 3.234375 -2.375 3.234375 -3.5 L 3.234375 -26.03125 C 3.265625 -27.175781 3.582031 -28.085938 4.1875 -28.765625 C 4.789062 -29.453125 5.609375 -29.796875 6.640625 -29.796875 C 7.671875 -29.796875 8.488281 -29.445312 9.09375 -28.75 C 9.695312 -28.050781 10 -27.144531 10 -26.03125 L 10 -18.234375 L 19.921875 -28.15625 L 20.40625 -28.6875 C 21.257812 -29.507812 22.128906 -29.921875 23.015625 -29.921875 C 23.960938 -29.921875 24.765625 -29.585938 25.421875 -28.921875 C 26.085938 -28.265625 26.421875 -27.460938 26.421875 -26.515625 C 26.421875 -26.015625 26.285156 -25.539062 26.015625 -25.09375 C 25.753906 -24.65625 25.285156 -24.097656 24.609375 -23.421875 L 16.203125 -15.1875 L 25.890625 -6.234375 C 26.660156 -5.523438 27.175781 -4.957031 27.4375 -4.53125 C 27.707031 -4.101562 27.84375 -3.597656 27.84375 -3.015625 C 27.84375 -2.066406 27.503906 -1.257812 26.828125 -0.59375 C 26.148438 0.0625 25.335938 0.390625 24.390625 0.390625 C 23.566406 0.390625 22.722656 -0.00390625 21.859375 -0.796875 Z M 21.296875 -1.328125 "/></g></g></g><g fill="#737373" fill-opacity="1"><g transform="translate(28.561326, 42.127092)"><g><path d="M 20.8125 -2.828125 L 19.78125 -5.046875 L 7.921875 -5.046875 L 7 -2.875 L 6.734375 -2.21875 C 5.992188 -0.625 4.882812 0.171875 3.40625 0.171875 C 2.488281 0.171875 1.691406 -0.140625 1.015625 -0.765625 C 0.335938 -1.398438 0 -2.160156 0 -3.046875 C 0 -3.609375 0.160156 -4.242188 0.484375 -4.953125 L 0.796875 -5.625 L 10.578125 -27.53125 C 11.203125 -28.914062 12.28125 -29.609375 13.8125 -29.609375 C 14.519531 -29.609375 15.160156 -29.429688 15.734375 -29.078125 C 16.304688 -28.722656 16.742188 -28.207031 17.046875 -27.53125 L 27.09375 -5.703125 C 27.414062 -4.992188 27.617188 -4.476562 27.703125 -4.15625 C 27.796875 -3.832031 27.84375 -3.460938 27.84375 -3.046875 C 27.84375 -2.160156 27.503906 -1.394531 26.828125 -0.75 C 26.148438 -0.101562 25.351562 0.21875 24.4375 0.21875 C 22.925781 0.21875 21.816406 -0.5625 21.109375 -2.125 Z M 17.4375 -10.890625 L 13.859375 -19.390625 L 10.359375 -10.890625 Z M 17.4375 -10.890625 "/></g></g></g><g fill="#737373" fill-opacity="1"><g transform="translate(56.360719, 42.127092)"><g><path d="M 3.234375 -4.25 L 3.234375 -26.03125 C 3.265625 -27.175781 3.582031 -28.085938 4.1875 -28.765625 C 4.789062 -29.453125 5.609375 -29.796875 6.640625 -29.796875 C 7.671875 -29.796875 8.488281 -29.445312 9.09375 -28.75 C 9.695312 -28.050781 10 -27.144531 10 -26.03125 L 10 -3.5 C 10 -2.34375 9.695312 -1.414062 9.09375 -0.71875 C 8.488281 -0.03125 7.671875 0.3125 6.640625 0.3125 C 5.609375 0.3125 4.78125 -0.0390625 4.15625 -0.75 C 3.539062 -1.457031 3.234375 -2.375 3.234375 -3.5 Z M 3.234375 -4.25 "/></g></g></g><g fill="#737373" fill-opacity="1"><g transform="translate(69.640686, 42.127092)"><g><path d="M 9.78125 -13.234375 C 7.539062 -13.878906 5.859375 -14.601562 4.734375 -15.40625 C 3.847656 -16 3.164062 -16.800781 2.6875 -17.8125 C 2.21875 -18.832031 1.984375 -19.992188 1.984375 -21.296875 C 1.984375 -22.554688 2.234375 -23.71875 2.734375 -24.78125 C 3.242188 -25.84375 3.945312 -26.757812 4.84375 -27.53125 C 5.75 -28.300781 6.832031 -28.898438 8.09375 -29.328125 C 9.363281 -29.753906 10.753906 -29.96875 12.265625 -29.96875 C 13.535156 -29.96875 14.738281 -29.816406 15.875 -29.515625 C 17.007812 -29.222656 18.003906 -28.816406 18.859375 -28.296875 C 19.710938 -27.785156 20.382812 -27.179688 20.875 -26.484375 C 21.363281 -25.796875 21.609375 -25.050781 21.609375 -24.25 C 21.609375 -23.394531 21.316406 -22.65625 20.734375 -22.03125 C 20.160156 -21.414062 19.460938 -21.109375 18.640625 -21.109375 C 18.046875 -21.109375 17.484375 -21.300781 16.953125 -21.6875 C 16.890625 -21.71875 16.722656 -21.84375 16.453125 -22.0625 C 16.191406 -22.28125 15.859375 -22.554688 15.453125 -22.890625 C 14.265625 -23.828125 13.113281 -24.296875 12 -24.296875 C 11.082031 -24.296875 10.296875 -24.03125 9.640625 -23.5 C 8.992188 -22.96875 8.671875 -22.335938 8.671875 -21.609375 C 8.671875 -20.867188 8.925781 -20.289062 9.4375 -19.875 C 9.957031 -19.457031 10.898438 -19.085938 12.265625 -18.765625 C 13.554688 -18.441406 14.675781 -18.125 15.625 -17.8125 C 16.570312 -17.507812 17.414062 -17.179688 18.15625 -16.828125 C 19.71875 -16.085938 20.898438 -15.066406 21.703125 -13.765625 C 22.515625 -12.460938 22.921875 -10.957031 22.921875 -9.25 C 22.921875 -7.800781 22.660156 -6.488281 22.140625 -5.3125 C 21.628906 -4.132812 20.894531 -3.113281 19.9375 -2.25 C 18.976562 -1.394531 17.84375 -0.734375 16.53125 -0.265625 C 15.21875 0.203125 13.765625 0.4375 12.171875 0.4375 C 10.722656 0.4375 9.34375 0.25 8.03125 -0.125 C 6.71875 -0.507812 5.566406 -1.035156 4.578125 -1.703125 C 3.585938 -2.367188 2.796875 -3.132812 2.203125 -4 C 1.617188 -4.875 1.328125 -5.785156 1.328125 -6.734375 C 1.328125 -7.171875 1.40625 -7.582031 1.5625 -7.96875 C 1.726562 -8.351562 1.953125 -8.691406 2.234375 -8.984375 C 2.515625 -9.273438 2.835938 -9.507812 3.203125 -9.6875 C 3.578125 -9.863281 3.96875 -9.953125 4.375 -9.953125 C 5 -9.953125 5.578125 -9.828125 6.109375 -9.578125 C 6.640625 -9.328125 7.273438 -8.878906 8.015625 -8.234375 C 8.867188 -7.429688 9.664062 -6.851562 10.40625 -6.5 C 11.144531 -6.144531 11.894531 -5.96875 12.65625 -5.96875 C 13.664062 -5.96875 14.5 -6.269531 15.15625 -6.875 C 15.820312 -7.488281 16.15625 -8.25 16.15625 -9.15625 C 16.15625 -9.925781 15.878906 -10.566406 15.328125 -11.078125 C 14.785156 -11.597656 13.910156 -12.035156 12.703125 -12.390625 Z M 9.78125 -13.234375 "/></g></g></g><g fill="#737373" fill-opacity="1"><g transform="translate(93.898763, 42.127092)"><g><path d="M 8.9375 -4.25 L 8.9375 -23.328125 L 3.453125 -23.328125 C 2.390625 -23.359375 1.546875 -23.644531 0.921875 -24.1875 C 0.304688 -24.738281 0 -25.484375 0 -26.421875 C 0 -27.335938 0.316406 -28.082031 0.953125 -28.65625 C 1.585938 -29.238281 2.421875 -29.53125 3.453125 -29.53125 L 21.203125 -29.53125 C 22.234375 -29.5 23.066406 -29.207031 23.703125 -28.65625 C 24.335938 -28.113281 24.65625 -27.367188 24.65625 -26.421875 C 24.65625 -25.484375 24.335938 -24.734375 23.703125 -24.171875 C 23.066406 -23.609375 22.234375 -23.328125 21.203125 -23.328125 L 15.71875 -23.328125 L 15.71875 -3.5 C 15.6875 -2.34375 15.367188 -1.414062 14.765625 -0.71875 C 14.160156 -0.03125 13.34375 0.3125 12.3125 0.3125 C 11.300781 0.3125 10.484375 -0.0390625 9.859375 -0.75 C 9.242188 -1.457031 8.9375 -2.375 8.9375 -3.5 Z M 8.9375 -4.25 "/></g></g></g><g fill="#737373" fill-opacity="1"><g transform="translate(118.555235, 42.127092)"><g><path d="M 9.390625 -4.25 L 9.390625 -12.609375 L 1.8125 -23.59375 C 1.3125 -24.332031 0.976562 -24.890625 0.8125 -25.265625 C 0.65625 -25.648438 0.578125 -26.066406 0.578125 -26.515625 C 0.578125 -27.398438 0.90625 -28.171875 1.5625 -28.828125 C 2.226562 -29.492188 3.035156 -29.828125 3.984375 -29.828125 C 5.109375 -29.828125 6.097656 -29.238281 6.953125 -28.0625 L 7.34375 -27.4375 L 12.75 -19.65625 L 18.15625 -27.4375 L 18.59375 -28.0625 C 19.03125 -28.65625 19.484375 -29.097656 19.953125 -29.390625 C 20.429688 -29.679688 20.96875 -29.828125 21.5625 -29.828125 C 22.46875 -29.828125 23.257812 -29.492188 23.9375 -28.828125 C 24.625 -28.171875 24.96875 -27.398438 24.96875 -26.515625 C 24.96875 -25.773438 24.6875 -25.007812 24.125 -24.21875 L 23.71875 -23.59375 L 16.15625 -12.609375 L 16.15625 -3.5 C 16.125 -2.34375 15.804688 -1.414062 15.203125 -0.71875 C 14.597656 -0.03125 13.796875 0.3125 12.796875 0.3125 C 11.765625 0.3125 10.9375 -0.0390625 10.3125 -0.75 C 9.695312 -1.457031 9.390625 -2.375 9.390625 -3.5 Z M 9.390625 -4.25 "/></g></g></g><g fill="#737373" fill-opacity="1"><g transform="translate(144.097039, 42.127092)"><g><path d="M 7.171875 0 C 4.546875 -0.0625 3.234375 -1.375 3.234375 -3.9375 L 3.234375 -26.03125 C 3.265625 -27.175781 3.582031 -28.085938 4.1875 -28.765625 C 4.789062 -29.453125 5.609375 -29.796875 6.640625 -29.796875 C 7.671875 -29.796875 8.488281 -29.445312 9.09375 -28.75 C 9.695312 -28.050781 10 -27.144531 10 -26.03125 L 10 -6.203125 L 18.8125 -6.203125 C 19.84375 -6.171875 20.664062 -5.878906 21.28125 -5.328125 C 21.90625 -4.785156 22.21875 -4.039062 22.21875 -3.09375 C 22.21875 -2.15625 21.90625 -1.40625 21.28125 -0.84375 C 20.664062 -0.28125 19.84375 0 18.8125 0 Z M 7.171875 0 "/></g></g></g><g fill="#737373" fill-opacity="1"><g transform="translate(166.93858, 42.127092)"><g><path d="M 7.171875 0 C 4.546875 -0.0625 3.234375 -1.375 3.234375 -3.9375 L 3.234375 -25.578125 C 3.285156 -28.210938 4.597656 -29.53125 7.171875 -29.53125 L 19.484375 -29.53125 C 20.515625 -29.5 21.335938 -29.207031 21.953125 -28.65625 C 22.578125 -28.113281 22.890625 -27.367188 22.890625 -26.421875 C 22.890625 -25.484375 22.578125 -24.734375 21.953125 -24.171875 C 21.335938 -23.609375 20.515625 -23.328125 19.484375 -23.328125 L 10 -23.328125 L 10 -17.84375 L 17.53125 -17.84375 C 18.476562 -17.8125 19.238281 -17.550781 19.8125 -17.0625 C 20.382812 -16.570312 20.671875 -15.898438 20.671875 -15.046875 C 20.671875 -14.191406 20.382812 -13.503906 19.8125 -12.984375 C 19.238281 -12.472656 18.476562 -12.21875 17.53125 -12.21875 L 10 -12.21875 L 10 -6.203125 L 19.703125 -6.203125 C 20.734375 -6.171875 21.566406 -5.878906 22.203125 -5.328125 C 22.835938 -4.785156 23.15625 -4.039062 23.15625 -3.09375 C 23.15625 -2.15625 22.835938 -1.40625 22.203125 -0.84375 C 21.566406 -0.28125 20.734375 0 19.703125 0 Z M 7.171875 0 "/></g></g></g></g></g></svg>